<?xml version="1.0" encoding="UTF-8"?>
<svg xmlns="http://www.w3.org/2000/svg" xmlns:xlink="http://www.w3.org/1999/xlink" width="700pt" height="700pt" viewBox="0 0 700 700" version="1.1">
<g id="surface1">
<path style="fill:none;stroke-width:0.5;stroke-linecap:butt;stroke-linejoin:miter;stroke:rgb(0%,0%,0%);stroke-opacity:1;stroke-miterlimit:10;" d="M 232.5 232.5 L 269.5 232.5 L 269.5 195.5 L 232.5 195.5 L 232.5 158.5 L 195.5 158.5 L 195.5 195.5 L 158.5 195.5 L 158.5 158.5 L 121.5 158.5 L 121.5 195.5 L 158.5 195.5 L 158.5 232.5 L 121.5 232.5 L 121.5 269.5 L 84.5 269.5 L 84.5 232.5 L 47.5 232.5 L 47.5 269.5 L 84.5 269.5 L 84.5 306.5 L 121.5 306.5 L 121.5 269.5 L 158.5 269.5 L 158.5 306.5 L 121.5 306.5 L 121.5 344.5 L 158.5 344.5 L 158.5 381.5 L 121.5 381.5 L 121.5 418.5 L 84.5 418.5 L 84.5 381.5 L 47.5 381.5 L 47.5 418.5 L 84.5 418.5 L 84.5 455.5 L 121.5 455.5 L 121.5 418.5 L 158.5 418.5 L 158.5 455.5 L 195.5 455.5 L 195.5 418.5 L 158.5 418.5 L 158.5 381.5 L 195.5 381.5 L 195.5 344.5 L 232.5 344.5 L 232.5 381.5 L 195.5 381.5 L 195.5 418.5 L 232.5 418.5 L 232.5 455.5 L 269.5 455.5 L 269.5 418.5 L 306.5 418.5 L 306.5 455.5 L 269.5 455.5 L 269.5 492.5 L 306.5 492.5 L 306.5 529.5 L 269.5 529.5 L 269.5 566.5 L 232.5 566.5 L 232.5 529.5 L 195.5 529.5 L 195.5 566.5 L 232.5 566.5 L 232.5 603.5 L 269.5 603.5 L 269.5 566.5 L 306.5 566.5 L 306.5 603.5 L 344.5 603.5 L 344.5 566.5 L 306.5 566.5 L 306.5 529.5 L 344.5 529.5 L 344.5 492.5 L 381.5 492.5 L 381.5 529.5 L 418.5 529.5 L 418.5 492.5 L 381.5 492.5 L 381.5 455.5 L 344.5 455.5 L 344.5 492.5 L 306.5 492.5 L 306.5 455.5 L 344.5 455.5 L 344.5 418.5 L 306.5 418.5 L 306.5 381.5 L 344.5 381.5 L 344.5 344.5 L 381.5 344.5 L 381.5 381.5 L 344.5 381.5 L 344.5 418.5 L 381.5 418.5 L 381.5 455.5 L 418.5 455.5 L 418.5 418.5 L 455.5 418.5 L 455.5 455.5 L 492.5 455.5 L 492.5 418.5 L 455.5 418.5 L 455.5 381.5 L 492.5 381.5 L 492.5 344.5 L 529.5 344.5 L 529.5 381.5 L 492.5 381.5 L 492.5 418.5 L 529.5 418.5 L 529.5 455.5 L 566.5 455.5 L 566.5 418.5 L 603.5 418.5 L 603.5 455.5 L 566.5 455.5 L 566.5 492.5 L 603.5 492.5 L 603.5 529.5 L 566.5 529.5 L 566.5 566.5 L 529.5 566.5 L 529.5 529.5 "/>
</g>
</svg>
