<?xml version="1.0" encoding="UTF-8"?>
<svg xmlns="http://www.w3.org/2000/svg" xmlns:xlink="http://www.w3.org/1999/xlink" width="700pt" height="700pt" viewBox="0 0 700 700" version="1.1">
<g id="surface1">
<path style="fill:none;stroke-width:0.5;stroke-linecap:butt;stroke-linejoin:miter;stroke:rgb(0%,0%,0%);stroke-opacity:1;stroke-miterlimit:10;" d="M 232.5 232.5 L 223.5 232.5 L 223.5 241.5 L 232.5 241.5 L 232.5 251.5 L 241.5 251.5 L 241.5 241.5 L 251.5 241.5 L 251.5 251.5 L 260.5 251.5 L 260.5 241.5 L 251.5 241.5 L 251.5 232.5 L 260.5 232.5 L 260.5 223.5 L 269.5 223.5 L 269.5 232.5 L 279.5 232.5 L 279.5 223.5 L 269.5 223.5 L 269.5 214.5 L 260.5 214.5 L 260.5 223.5 L 251.5 223.5 L 251.5 214.5 L 260.5 214.5 L 260.5 204.5 L 251.5 204.5 L 251.5 195.5 L 260.5 195.5 L 260.5 186.5 L 269.5 186.5 L 269.5 195.5 L 279.5 195.5 L 279.5 186.5 L 269.5 186.5 L 269.5 176.5 L 260.5 176.5 L 260.5 186.5 L 251.5 186.5 L 251.5 176.5 L 241.5 176.5 L 241.5 186.5 L 251.5 186.5 L 251.5 195.5 L 241.5 195.5 L 241.5 204.5 L 232.5 204.5 L 232.5 195.5 L 241.5 195.5 L 241.5 186.5 L 232.5 186.5 L 232.5 176.5 L 223.5 176.5 L 223.5 186.5 L 214.5 186.5 L 214.5 176.5 L 223.5 176.5 L 223.5 167.5 L 214.5 167.5 L 214.5 158.5 L 223.5 158.5 L 223.5 149.5 L 232.5 149.5 L 232.5 158.5 L 241.5 158.5 L 241.5 149.5 L 232.5 149.5 L 232.5 139.5 L 223.5 139.5 L 223.5 149.5 L 214.5 149.5 L 214.5 139.5 L 204.5 139.5 L 204.5 149.5 L 214.5 149.5 L 214.5 158.5 L 204.5 158.5 L 204.5 167.5 L 195.5 167.5 L 195.5 158.5 L 186.5 158.5 L 186.5 167.5 L 195.5 167.5 L 195.5 176.5 L 204.5 176.5 L 204.5 167.5 L 214.5 167.5 L 214.5 176.5 L 204.5 176.5 L 204.5 186.5 L 214.5 186.5 L 214.5 195.5 L 204.5 195.5 L 204.5 204.5 L 195.5 204.5 L 195.5 195.5 L 204.5 195.5 L 204.5 186.5 L 195.5 186.5 L 195.5 176.5 L 186.5 176.5 L 186.5 186.5 L 176.5 186.5 L 176.5 176.5 L 167.5 176.5 L 167.5 186.5 L 176.5 186.5 L 176.5 195.5 L 167.5 195.5 L 167.5 204.5 L 158.5 204.5 L 158.5 195.5 L 167.5 195.5 L 167.5 186.5 L 158.5 186.5 L 158.5 176.5 L 149.5 176.5 L 149.5 186.5 L 139.5 186.5 L 139.5 176.5 L 149.5 176.5 L 149.5 167.5 L 139.5 167.5 L 139.5 158.5 L 149.5 158.5 L 149.5 149.5 L 158.5 149.5 L 158.5 158.5 L 167.5 158.5 L 167.5 149.5 L 158.5 149.5 L 158.5 139.5 L 149.5 139.5 L 149.5 149.5 L 139.5 149.5 L 139.5 139.5 L 130.5 139.5 L 130.5 149.5 L 139.5 149.5 L 139.5 158.5 L 130.5 158.5 L 130.5 167.5 L 121.5 167.5 L 121.5 158.5 L 111.5 158.5 L 111.5 167.5 L 121.5 167.5 L 121.5 176.5 L 130.5 176.5 L 130.5 167.5 L 139.5 167.5 L 139.5 176.5 L 130.5 176.5 L 130.5 186.5 L 139.5 186.5 L 139.5 195.5 L 130.5 195.5 L 130.5 204.5 L 121.5 204.5 L 121.5 195.5 L 111.5 195.5 L 111.5 204.5 L 121.5 204.5 L 121.5 214.5 L 130.5 214.5 L 130.5 204.5 L 139.5 204.5 L 139.5 214.5 L 149.5 214.5 L 149.5 204.5 L 139.5 204.5 L 139.5 195.5 L 149.5 195.5 L 149.5 186.5 L 158.5 186.5 L 158.5 195.5 L 149.5 195.5 L 149.5 204.5 L 158.5 204.5 L 158.5 214.5 L 167.5 214.5 L 167.5 204.5 L 176.5 204.5 L 176.5 214.5 L 167.5 214.5 L 167.5 223.5 L 176.5 223.5 L 176.5 232.5 L 167.5 232.5 L 167.5 241.5 L 158.5 241.5 L 158.5 232.5 L 167.5 232.5 L 167.5 223.5 L 158.5 223.5 L 158.5 214.5 L 149.5 214.5 L 149.5 223.5 L 139.5 223.5 L 139.5 214.5 L 130.5 214.5 L 130.5 223.5 L 139.5 223.5 L 139.5 232.5 L 130.5 232.5 L 130.5 241.5 L 121.5 241.5 L 121.5 232.5 L 111.5 232.5 L 111.5 241.5 L 121.5 241.5 L 121.5 251.5 L 130.5 251.5 L 130.5 241.5 L 139.5 241.5 L 139.5 251.5 L 130.5 251.5 L 130.5 260.5 L 139.5 260.5 L 139.5 269.5 L 130.5 269.5 L 130.5 279.5 L 121.5 279.5 L 121.5 269.5 L 130.5 269.5 L 130.5 260.5 L 121.5 260.5 L 121.5 251.5 L 111.5 251.5 L 111.5 260.5 L 102.5 260.5 L 102.5 251.5 L 93.5 251.5 L 93.5 260.5 L 102.5 260.5 L 102.5 269.5 L 93.5 269.5 L 93.5 279.5 L 84.5 279.5 L 84.5 269.5 L 93.5 269.5 L 93.5 260.5 L 84.5 260.5 L 84.5 251.5 L 74.5 251.5 L 74.5 260.5 L 65.5 260.5 L 65.5 251.5 L 74.5 251.5 L 74.5 241.5 L 65.5 241.5 L 65.5 232.5 L 74.5 232.5 L 74.5 223.5 L 84.5 223.5 L 84.5 232.5 L 93.5 232.5 L 93.5 223.5 L 84.5 223.5 L 84.5 214.5 L 74.5 214.5 L 74.5 223.5 L 65.5 223.5 L 65.5 214.5 L 56.5 214.5 L 56.5 223.5 L 65.5 223.5 L 65.5 232.5 L 56.5 232.5 L 56.5 241.5 L 47.5 241.5 L 47.5 232.5 L 37.5 232.5 L 37.5 241.5 L 47.5 241.5 L 47.5 251.5 L 56.5 251.5 L 56.5 241.5 L 65.5 241.5 L 65.5 251.5 L 56.5 251.5 L 56.5 260.5 L 65.5 260.5 L 65.5 269.5 L 56.5 269.5 L 56.5 279.5 L 47.5 279.5 L 47.5 269.5 L 37.5 269.5 L 37.5 279.5 L 47.5 279.5 L 47.5 288.5 L 56.5 288.5 L 56.5 279.5 L 65.5 279.5 L 65.5 288.5 L 74.5 288.5 L 74.5 279.5 L 65.5 279.5 L 65.5 269.5 L 74.5 269.5 L 74.5 260.5 L 84.5 260.5 L 84.5 269.5 L 74.5 269.5 L 74.5 279.5 L 84.5 279.5 L 84.5 288.5 L 93.5 288.5 L 93.5 279.5 L 102.5 279.5 L 102.5 288.5 L 93.5 288.5 L 93.5 297.5 L 102.5 297.5 L 102.5 306.5 L 93.5 306.5 L 93.5 316.5 L 84.5 316.5 L 84.5 306.5 L 74.5 306.5 L 74.5 316.5 L 84.5 316.5 L 84.5 325.5 L 93.5 325.5 L 93.5 316.5 L 102.5 316.5 L 102.5 325.5 L 111.5 325.5 L 111.5 316.5 L 102.5 316.5 L 102.5 306.5 L 111.5 306.5 L 111.5 297.5 L 121.5 297.5 L 121.5 306.5 L 130.5 306.5 L 130.5 297.5 L 121.5 297.5 L 121.5 288.5 L 111.5 288.5 L 111.5 297.5 L 102.5 297.5 L 102.5 288.5 L 111.5 288.5 L 111.5 279.5 L 102.5 279.5 L 102.5 269.5 L 111.5 269.5 L 111.5 260.5 L 121.5 260.5 L 121.5 269.5 L 111.5 269.5 L 111.5 279.5 L 121.5 279.5 L 121.5 288.5 L 130.5 288.5 L 130.5 279.5 L 139.5 279.5 L 139.5 288.5 L 149.5 288.5 L 149.5 279.5 L 139.5 279.5 L 139.5 269.5 L 149.5 269.5 L 149.5 260.5 L 158.5 260.5 L 158.5 269.5 L 149.5 269.5 L 149.5 279.5 L 158.5 279.5 L 158.5 288.5 L 167.5 288.5 L 167.5 279.5 L 176.5 279.5 L 176.5 288.5 L 167.5 288.5 L 167.5 297.5 L 176.5 297.5 L 176.5 306.5 L 167.5 306.5 L 167.5 316.5 L 158.5 316.5 L 158.5 306.5 L 167.5 306.5 L 167.5 297.5 L 158.5 297.5 L 158.5 288.5 L 149.5 288.5 L 149.5 297.5 L 139.5 297.5 L 139.5 288.5 L 130.5 288.5 L 130.5 297.5 L 139.5 297.5 L 139.5 306.5 L 130.5 306.5 L 130.5 316.5 L 121.5 316.5 L 121.5 306.5 L 111.5 306.5 L 111.5 316.5 L 121.5 316.5 L 121.5 325.5 L 130.5 325.5 L 130.5 316.5 L 139.5 316.5 L 139.5 325.5 L 130.5 325.5 L 130.5 334.5 L 139.5 334.5 L 139.5 344.5 L 130.5 344.5 L 130.5 353.5 L 121.5 353.5 L 121.5 344.5 L 111.5 344.5 L 111.5 353.5 L 121.5 353.5 L 121.5 362.5 L 130.5 362.5 L 130.5 353.5 L 139.5 353.5 L 139.5 362.5 L 149.5 362.5 L 149.5 353.5 L 139.5 353.5 L 139.5 344.5 L 149.5 344.5 L 149.5 334.5 L 158.5 334.5 L 158.5 344.5 L 149.5 344.5 L 149.5 353.5 L 158.5 353.5 L 158.5 362.5 L 167.5 362.5 L 167.5 353.5 L 176.5 353.5 L 176.5 362.5 L 167.5 362.5 L 167.5 371.5 L 176.5 371.5 L 176.5 381.5 L 167.5 381.5 L 167.5 390.5 L 158.5 390.5 L 158.5 381.5 L 167.5 381.5 L 167.5 371.5 L 158.5 371.5 L 158.5 362.5 L 149.5 362.5 L 149.5 371.5 L 139.5 371.5 L 139.5 362.5 L 130.5 362.5 L 130.5 371.5 L 139.5 371.5 L 139.5 381.5 L 130.5 381.5 L 130.5 390.5 L 121.5 390.5 L 121.5 381.5 L 111.5 381.5 L 111.5 390.5 L 121.5 390.5 L 121.5 399.5 L 130.5 399.5 L 130.5 390.5 L 139.5 390.5 L 139.5 399.5 L 130.5 399.5 L 130.5 408.5 L 139.5 408.5 L 139.5 418.5 L 130.5 418.5 L 130.5 427.5 L 121.5 427.5 L 121.5 418.5 L 130.5 418.5 L 130.5 408.5 L 121.5 408.5 L 121.5 399.5 L 111.5 399.5 L 111.5 408.5 L 102.5 408.5 L 102.5 399.5 L 93.5 399.5 L 93.5 408.5 L 102.5 408.5 L 102.5 418.5 L 93.5 418.5 L 93.5 427.5 L 84.5 427.5 L 84.5 418.5 L 93.5 418.5 L 93.5 408.5 L 84.5 408.5 L 84.5 399.5 L 74.5 399.5 L 74.5 408.5 L 65.5 408.5 L 65.5 399.5 L 74.5 399.5 L 74.5 390.5 L 65.5 390.5 L 65.5 381.5 L 74.5 381.5 L 74.5 371.5 L 84.5 371.5 L 84.5 381.5 L 93.5 381.5 L 93.5 371.5 L 84.5 371.5 L 84.5 362.5 L 74.5 362.5 L 74.5 371.5 L 65.5 371.5 L 65.5 362.5 L 56.5 362.5 L 56.5 371.5 L 65.5 371.5 L 65.5 381.5 L 56.5 381.5 L 56.5 390.5 L 47.5 390.5 L 47.5 381.5 L 37.5 381.5 L 37.5 390.5 L 47.5 390.5 L 47.5 399.5 L 56.5 399.5 L 56.5 390.5 L 65.5 390.5 L 65.5 399.5 L 56.5 399.5 L 56.5 408.5 L 65.5 408.5 L 65.5 418.5 L 56.5 418.5 L 56.5 427.5 L 47.5 427.5 L 47.5 418.5 L 37.5 418.5 L 37.5 427.5 L 47.5 427.5 L 47.5 436.5 L 56.5 436.5 L 56.5 427.5 L 65.5 427.5 L 65.5 436.5 L 74.5 436.5 L 74.5 427.5 L 65.5 427.5 L 65.5 418.5 L 74.5 418.5 L 74.5 408.5 L 84.5 408.5 L 84.5 418.5 L 74.5 418.5 L 74.5 427.5 L 84.5 427.5 L 84.5 436.5 L 93.5 436.5 L 93.5 427.5 L 102.5 427.5 L 102.5 436.5 L 93.5 436.5 L 93.5 446.5 L 102.5 446.5 L 102.5 455.5 L 93.5 455.5 L 93.5 464.5 L 84.5 464.5 L 84.5 455.5 L 74.5 455.5 L 74.5 464.5 L 84.5 464.5 L 84.5 473.5 L 93.5 473.5 L 93.5 464.5 L 102.5 464.5 L 102.5 473.5 L 111.5 473.5 L 111.5 464.5 L 102.5 464.5 L 102.5 455.5 L 111.5 455.5 L 111.5 446.5 L 121.5 446.5 L 121.5 455.5 L 130.5 455.5 L 130.5 446.5 L 121.5 446.5 L 121.5 436.5 L 111.5 436.5 L 111.5 446.5 L 102.5 446.5 L 102.5 436.5 L 111.5 436.5 L 111.5 427.5 L 102.5 427.5 L 102.5 418.5 L 111.5 418.5 L 111.5 408.5 L 121.5 408.5 L 121.5 418.5 L 111.5 418.5 L 111.5 427.5 L 121.5 427.5 L 121.5 436.5 L 130.5 436.5 L 130.5 427.5 L 139.5 427.5 L 139.5 436.5 L 149.5 436.5 L 149.5 427.5 L 139.5 427.5 L 139.5 418.5 L 149.5 418.5 L 149.5 408.5 L 158.5 408.5 L 158.5 418.5 L 149.5 418.5 L 149.5 427.5 L 158.5 427.5 L 158.5 436.5 L 167.5 436.5 L 167.5 427.5 L 176.5 427.5 L 176.5 436.5 L 167.5 436.5 L 167.5 446.5 L 176.5 446.5 L 176.5 455.5 L 167.5 455.5 L 167.5 464.5 L 158.5 464.5 L 158.5 455.5 L 149.5 455.5 L 149.5 464.5 L 158.5 464.5 L 158.5 473.5 L 167.5 473.5 L 167.5 464.5 L 176.5 464.5 L 176.5 473.5 L 186.5 473.5 L 186.5 464.5 L 176.5 464.5 L 176.5 455.5 L 186.5 455.5 L 186.5 446.5 L 195.5 446.5 L 195.5 455.5 L 204.5 455.5 L 204.5 446.5 L 195.5 446.5 L 195.5 436.5 L 186.5 436.5 L 186.5 446.5 L 176.5 446.5 L 176.5 436.5 L 186.5 436.5 L 186.5 427.5 L 176.5 427.5 L 176.5 418.5 L 186.5 418.5 L 186.5 408.5 L 195.5 408.5 L 195.5 418.5 L 204.5 418.5 L 204.5 408.5 L 195.5 408.5 L 195.5 399.5 L 186.5 399.5 L 186.5 408.5 L 176.5 408.5 L 176.5 399.5 L 167.5 399.5 L 167.5 408.5 L 176.5 408.5 L 176.5 418.5 L 167.5 418.5 L 167.5 427.5 L 158.5 427.5 L 158.5 418.5 L 167.5 418.5 L 167.5 408.5 L 158.5 408.5 L 158.5 399.5 L 149.5 399.5 L 149.5 408.5 L 139.5 408.5 L 139.5 399.5 L 149.5 399.5 L 149.5 390.5 L 139.5 390.5 L 139.5 381.5 L 149.5 381.5 L 149.5 371.5 L 158.5 371.5 L 158.5 381.5 L 149.5 381.5 L 149.5 390.5 L 158.5 390.5 L 158.5 399.5 L 167.5 399.5 L 167.5 390.5 L 176.5 390.5 L 176.5 399.5 L 186.5 399.5 L 186.5 390.5 L 176.5 390.5 L 176.5 381.5 L 186.5 381.5 L 186.5 371.5 L 195.5 371.5 L 195.5 381.5 L 204.5 381.5 L 204.5 371.5 L 195.5 371.5 L 195.5 362.5 L 186.5 362.5 L 186.5 371.5 L 176.5 371.5 L 176.5 362.5 L 186.5 362.5 L 186.5 353.5 L 176.5 353.5 L 176.5 344.5 L 186.5 344.5 L 186.5 334.5 L 195.5 334.5 L 195.5 344.5 L 186.5 344.5 L 186.5 353.5 L 195.5 353.5 L 195.5 362.5 L 204.5 362.5 L 204.5 353.5 L 214.5 353.5 L 214.5 362.5 L 223.5 362.5 L 223.5 353.5 L 214.5 353.5 L 214.5 344.5 L 223.5 344.5 L 223.5 334.5 L 232.5 334.5 L 232.5 344.5 L 223.5 344.5 L 223.5 353.5 L 232.5 353.5 L 232.5 362.5 L 241.5 362.5 L 241.5 353.5 L 251.5 353.5 L 251.5 362.5 L 241.5 362.5 L 241.5 371.5 L 251.5 371.5 L 251.5 381.5 L 241.5 381.5 L 241.5 390.5 L 232.5 390.5 L 232.5 381.5 L 241.5 381.5 L 241.5 371.5 L 232.5 371.5 L 232.5 362.5 L 223.5 362.5 L 223.5 371.5 L 214.5 371.5 L 214.5 362.5 L 204.5 362.5 L 204.5 371.5 L 214.5 371.5 L 214.5 381.5 L 204.5 381.5 L 204.5 390.5 L 195.5 390.5 L 195.5 381.5 L 186.5 381.5 L 186.5 390.5 L 195.5 390.5 L 195.5 399.5 L 204.5 399.5 L 204.5 390.5 L 214.5 390.5 L 214.5 399.5 L 204.5 399.5 L 204.5 408.5 L 214.5 408.5 L 214.5 418.5 L 204.5 418.5 L 204.5 427.5 L 195.5 427.5 L 195.5 418.5 L 186.5 418.5 L 186.5 427.5 L 195.5 427.5 L 195.5 436.5 L 204.5 436.5 L 204.5 427.5 L 214.5 427.5 L 214.5 436.5 L 223.5 436.5 L 223.5 427.5 L 214.5 427.5 L 214.5 418.5 L 223.5 418.5 L 223.5 408.5 L 232.5 408.5 L 232.5 418.5 L 223.5 418.5 L 223.5 427.5 L 232.5 427.5 L 232.5 436.5 L 241.5 436.5 L 241.5 427.5 L 251.5 427.5 L 251.5 436.5 L 241.5 436.5 L 241.5 446.5 L 251.5 446.5 L 251.5 455.5 L 241.5 455.5 L 241.5 464.5 L 232.5 464.5 L 232.5 455.5 L 223.5 455.5 L 223.5 464.5 L 232.5 464.5 L 232.5 473.5 L 241.5 473.5 L 241.5 464.5 L 251.5 464.5 L 251.5 473.5 L 260.5 473.5 L 260.5 464.5 L 251.5 464.5 L 251.5 455.5 L 260.5 455.5 L 260.5 446.5 L 269.5 446.5 L 269.5 455.5 L 279.5 455.5 L 279.5 446.5 L 269.5 446.5 L 269.5 436.5 L 260.5 436.5 L 260.5 446.5 L 251.5 446.5 L 251.5 436.5 L 260.5 436.5 L 260.5 427.5 L 251.5 427.5 L 251.5 418.5 L 260.5 418.5 L 260.5 408.5 L 269.5 408.5 L 269.5 418.5 L 260.5 418.5 L 260.5 427.5 L 269.5 427.5 L 269.5 436.5 L 279.5 436.5 L 279.5 427.5 L 288.5 427.5 L 288.5 436.5 L 297.5 436.5 L 297.5 427.5 L 288.5 427.5 L 288.5 418.5 L 297.5 418.5 L 297.5 408.5 L 306.5 408.5 L 306.5 418.5 L 297.5 418.5 L 297.5 427.5 L 306.5 427.5 L 306.5 436.5 L 316.5 436.5 L 316.5 427.5 L 325.5 427.5 L 325.5 436.5 L 316.5 436.5 L 316.5 446.5 L 325.5 446.5 L 325.5 455.5 L 316.5 455.5 L 316.5 464.5 L 306.5 464.5 L 306.5 455.5 L 316.5 455.5 L 316.5 446.5 L 306.5 446.5 L 306.5 436.5 L 297.5 436.5 L 297.5 446.5 L 288.5 446.5 L 288.5 436.5 L 279.5 436.5 L 279.5 446.5 L 288.5 446.5 L 288.5 455.5 L 279.5 455.5 L 279.5 464.5 L 269.5 464.5 L 269.5 455.5 L 260.5 455.5 L 260.5 464.5 L 269.5 464.5 L 269.5 473.5 L 279.5 473.5 L 279.5 464.5 L 288.5 464.5 L 288.5 473.5 L 279.5 473.5 L 279.5 483.5 L 288.5 483.5 L 288.5 492.5 L 279.5 492.5 L 279.5 501.5 L 269.5 501.5 L 269.5 492.5 L 260.5 492.5 L 260.5 501.5 L 269.5 501.5 L 269.5 511.5 L 279.5 511.5 L 279.5 501.5 L 288.5 501.5 L 288.5 511.5 L 297.5 511.5 L 297.5 501.5 L 288.5 501.5 L 288.5 492.5 L 297.5 492.5 L 297.5 483.5 L 306.5 483.5 L 306.5 492.5 L 297.5 492.5 L 297.5 501.5 L 306.5 501.5 L 306.5 511.5 L 316.5 511.5 L 316.5 501.5 L 325.5 501.5 L 325.5 511.5 L 316.5 511.5 L 316.5 520.5 L 325.5 520.5 L 325.5 529.5 L 316.5 529.5 L 316.5 538.5 L 306.5 538.5 L 306.5 529.5 L 316.5 529.5 L 316.5 520.5 L 306.5 520.5 L 306.5 511.5 L 297.5 511.5 L 297.5 520.5 L 288.5 520.5 L 288.5 511.5 L 279.5 511.5 L 279.5 520.5 L 288.5 520.5 L 288.5 529.5 L 279.5 529.5 L 279.5 538.5 L 269.5 538.5 L 269.5 529.5 L 260.5 529.5 L 260.5 538.5 L 269.5 538.5 L 269.5 548.5 L 279.5 548.5 L 279.5 538.5 L 288.5 538.5 L 288.5 548.5 L 279.5 548.5 L 279.5 557.5 L 288.5 557.5 L 288.5 566.5 L 279.5 566.5 L 279.5 576.5 L 269.5 576.5 L 269.5 566.5 L 279.5 566.5 L 279.5 557.5 L 269.5 557.5 L 269.5 548.5 L 260.5 548.5 L 260.5 557.5 L 251.5 557.5 L 251.5 548.5 L 241.5 548.5 L 241.5 557.5 L 251.5 557.5 L 251.5 566.5 L 241.5 566.5 L 241.5 576.5 L 232.5 576.5 L 232.5 566.5 L 241.5 566.5 L 241.5 557.5 L 232.5 557.5 L 232.5 548.5 L 223.5 548.5 L 223.5 557.5 L 214.5 557.5 L 214.5 548.5 L 223.5 548.5 L 223.5 538.5 L 214.5 538.5 L 214.5 529.5 L 223.5 529.5 L 223.5 520.5 L 232.5 520.5 L 232.5 529.5 L 241.5 529.5 L 241.5 520.5 L 232.5 520.5 L 232.5 511.5 L 223.5 511.5 L 223.5 520.5 L 214.5 520.5 L 214.5 511.5 L 204.5 511.5 L 204.5 520.5 L 214.5 520.5 L 214.5 529.5 L 204.5 529.5 L 204.5 538.5 L 195.5 538.5 L 195.5 529.5 L 186.5 529.5 L 186.5 538.5 L 195.5 538.5 L 195.5 548.5 L 204.5 548.5 L 204.5 538.5 L 214.5 538.5 L 214.5 548.5 L 204.5 548.5 L 204.5 557.5 L 214.5 557.5 L 214.5 566.5 L 204.5 566.5 L 204.5 576.5 L 195.5 576.5 L 195.5 566.5 L 186.5 566.5 L 186.5 576.5 L 195.5 576.5 L 195.5 585.5 L 204.5 585.5 L 204.5 576.5 L 214.5 576.5 L 214.5 585.5 L 223.5 585.5 L 223.5 576.5 L 214.5 576.5 L 214.5 566.5 L 223.5 566.5 L 223.5 557.5 L 232.5 557.5 L 232.5 566.5 L 223.5 566.5 L 223.5 576.5 L 232.5 576.5 L 232.5 585.5 L 241.5 585.5 L 241.5 576.5 L 251.5 576.5 L 251.5 585.5 L 241.5 585.5 L 241.5 594.5 L 251.5 594.5 L 251.5 603.5 L 241.5 603.5 L 241.5 613.5 L 232.5 613.5 L 232.5 603.5 L 223.5 603.5 L 223.5 613.5 L 232.5 613.5 L 232.5 622.5 L 241.5 622.5 L 241.5 613.5 L 251.5 613.5 L 251.5 622.5 L 260.5 622.5 L 260.5 613.5 L 251.5 613.5 L 251.5 603.5 L 260.5 603.5 L 260.5 594.5 L 269.5 594.5 L 269.5 603.5 L 279.5 603.5 L 279.5 594.5 L 269.5 594.5 L 269.5 585.5 L 260.5 585.5 L 260.5 594.5 L 251.5 594.5 L 251.5 585.5 L 260.5 585.5 L 260.5 576.5 L 251.5 576.5 L 251.5 566.5 L 260.5 566.5 L 260.5 557.5 L 269.5 557.5 L 269.5 566.5 L 260.5 566.5 L 260.5 576.5 L 269.5 576.5 L 269.5 585.5 L 279.5 585.5 L 279.5 576.5 L 288.5 576.5 L 288.5 585.5 L 297.5 585.5 L 297.5 576.5 L 288.5 576.5 L 288.5 566.5 L 297.5 566.5 L 297.5 557.5 L 306.5 557.5 L 306.5 566.5 L 297.5 566.5 L 297.5 576.5 L 306.5 576.5 L 306.5 585.5 L 316.5 585.5 L 316.5 576.5 L 325.5 576.5 L 325.5 585.5 L 316.5 585.5 L 316.5 594.5 L 325.5 594.5 L 325.5 603.5 L 316.5 603.5 L 316.5 613.5 L 306.5 613.5 L 306.5 603.5 L 297.5 603.5 L 297.5 613.5 L 306.5 613.5 L 306.5 622.5 L 316.5 622.5 L 316.5 613.5 L 325.5 613.5 L 325.5 622.5 L 334.5 622.5 L 334.5 613.5 L 325.5 613.5 L 325.5 603.5 L 334.5 603.5 L 334.5 594.5 L 344.5 594.5 L 344.5 603.5 L 353.5 603.5 L 353.5 594.5 L 344.5 594.5 L 344.5 585.5 L 334.5 585.5 L 334.5 594.5 L 325.5 594.5 L 325.5 585.5 L 334.5 585.5 L 334.5 576.5 L 325.5 576.5 L 325.5 566.5 L 334.5 566.5 L 334.5 557.5 L 344.5 557.5 L 344.5 566.5 L 353.5 566.5 L 353.5 557.5 L 344.5 557.5 L 344.5 548.5 L 334.5 548.5 L 334.5 557.5 L 325.5 557.5 L 325.5 548.5 L 316.5 548.5 L 316.5 557.5 L 325.5 557.5 L 325.5 566.5 L 316.5 566.5 L 316.5 576.5 L 306.5 576.5 L 306.5 566.5 L 316.5 566.5 L 316.5 557.5 L 306.5 557.5 L 306.5 548.5 L 297.5 548.5 L 297.5 557.5 L 288.5 557.5 L 288.5 548.5 L 297.5 548.5 L 297.5 538.5 L 288.5 538.5 L 288.5 529.5 L 297.5 529.5 L 297.5 520.5 L 306.5 520.5 L 306.5 529.5 L 297.5 529.5 L 297.5 538.5 L 306.5 538.5 L 306.5 548.5 L 316.5 548.5 L 316.5 538.5 L 325.5 538.5 L 325.5 548.5 L 334.5 548.5 L 334.5 538.5 L 325.5 538.5 L 325.5 529.5 L 334.5 529.5 L 334.5 520.5 L 344.5 520.5 L 344.5 529.5 L 353.5 529.5 L 353.5 520.5 L 344.5 520.5 L 344.5 511.5 L 334.5 511.5 L 334.5 520.5 L 325.5 520.5 L 325.5 511.5 L 334.5 511.5 L 334.5 501.5 L 325.5 501.5 L 325.5 492.5 L 334.5 492.5 L 334.5 483.5 L 344.5 483.5 L 344.5 492.5 L 334.5 492.5 L 334.5 501.5 L 344.5 501.5 L 344.5 511.5 L 353.5 511.5 L 353.5 501.5 L 362.5 501.5 L 362.5 511.5 L 371.5 511.5 L 371.5 501.5 L 362.5 501.5 L 362.5 492.5 L 371.5 492.5 L 371.5 483.5 L 381.5 483.5 L 381.5 492.5 L 371.5 492.5 L 371.5 501.5 L 381.5 501.5 L 381.5 511.5 L 390.5 511.5 L 390.5 501.5 L 399.5 501.5 L 399.5 511.5 L 390.5 511.5 L 390.5 520.5 L 399.5 520.5 L 399.5 529.5 L 390.5 529.5 L 390.5 538.5 L 381.5 538.5 L 381.5 529.5 L 371.5 529.5 L 371.5 538.5 L 381.5 538.5 L 381.5 548.5 L 390.5 548.5 L 390.5 538.5 L 399.5 538.5 L 399.5 548.5 L 408.5 548.5 L 408.5 538.5 L 399.5 538.5 L 399.5 529.5 L 408.5 529.5 L 408.5 520.5 L 418.5 520.5 L 418.5 529.5 L 427.5 529.5 L 427.5 520.5 L 418.5 520.5 L 418.5 511.5 L 408.5 511.5 L 408.5 520.5 L 399.5 520.5 L 399.5 511.5 L 408.5 511.5 L 408.5 501.5 L 399.5 501.5 L 399.5 492.5 L 408.5 492.5 L 408.5 483.5 L 418.5 483.5 L 418.5 492.5 L 427.5 492.5 L 427.5 483.5 L 418.5 483.5 L 418.5 473.5 L 408.5 473.5 L 408.5 483.5 L 399.5 483.5 L 399.5 473.5 L 390.5 473.5 L 390.5 483.5 L 399.5 483.5 L 399.5 492.5 L 390.5 492.5 L 390.5 501.5 L 381.5 501.5 L 381.5 492.5 L 390.5 492.5 L 390.5 483.5 L 381.5 483.5 L 381.5 473.5 L 371.5 473.5 L 371.5 483.5 L 362.5 483.5 L 362.5 473.5 L 371.5 473.5 L 371.5 464.5 L 362.5 464.5 L 362.5 455.5 L 371.5 455.5 L 371.5 446.5 L 381.5 446.5 L 381.5 455.5 L 390.5 455.5 L 390.5 446.5 L 381.5 446.5 L 381.5 436.5 L 371.5 436.5 L 371.5 446.5 L 362.5 446.5 L 362.5 436.5 L 353.5 436.5 L 353.5 446.5 L 362.5 446.5 L 362.5 455.5 L 353.5 455.5 L 353.5 464.5 L 344.5 464.5 L 344.5 455.5 L 334.5 455.5 L 334.5 464.5 L 344.5 464.5 L 344.5 473.5 L 353.5 473.5 L 353.5 464.5 L 362.5 464.5 L 362.5 473.5 L 353.5 473.5 L 353.5 483.5 L 362.5 483.5 L 362.5 492.5 L 353.5 492.5 L 353.5 501.5 L 344.5 501.5 L 344.5 492.5 L 353.5 492.5 L 353.5 483.5 L 344.5 483.5 L 344.5 473.5 L 334.5 473.5 L 334.5 483.5 L 325.5 483.5 L 325.5 473.5 L 316.5 473.5 L 316.5 483.5 L 325.5 483.5 L 325.5 492.5 L 316.5 492.5 L 316.5 501.5 L 306.5 501.5 L 306.5 492.5 L 316.5 492.5 L 316.5 483.5 L 306.5 483.5 L 306.5 473.5 L 297.5 473.5 L 297.5 483.5 L 288.5 483.5 L 288.5 473.5 L 297.5 473.5 L 297.5 464.5 L 288.5 464.5 L 288.5 455.5 L 297.5 455.5 L 297.5 446.5 L 306.5 446.5 L 306.5 455.5 L 297.5 455.5 L 297.5 464.5 L 306.5 464.5 L 306.5 473.5 L 316.5 473.5 L 316.5 464.5 L 325.5 464.5 L 325.5 473.5 L 334.5 473.5 L 334.5 464.5 L 325.5 464.5 L 325.5 455.5 L 334.5 455.5 L 334.5 446.5 L 344.5 446.5 L 344.5 455.5 L 353.5 455.5 L 353.5 446.5 L 344.5 446.5 L 344.5 436.5 L 334.5 436.5 L 334.5 446.5 L 325.5 446.5 L 325.5 436.5 L 334.5 436.5 L 334.5 427.5 L 325.5 427.5 L 325.5 418.5 L 334.5 418.5 L 334.5 408.5 L 344.5 408.5 L 344.5 418.5 L 353.5 418.5 L 353.5 408.5 L 344.5 408.5 L 344.5 399.5 L 334.5 399.5 L 334.5 408.5 L 325.5 408.5 L 325.5 399.5 L 316.5 399.5 L 316.5 408.5 L 325.5 408.5 L 325.5 418.5 L 316.5 418.5 L 316.5 427.5 L 306.5 427.5 L 306.5 418.5 L 316.5 418.5 L 316.5 408.5 L 306.5 408.5 L 306.5 399.5 L 297.5 399.5 L 297.5 408.5 L 288.5 408.5 L 288.5 399.5 L 297.5 399.5 L 297.5 390.5 L 288.5 390.5 L 288.5 381.5 L 297.5 381.5 L 297.5 371.5 L 306.5 371.5 L 306.5 381.5 L 297.5 381.5 L 297.5 390.5 L 306.5 390.5 L 306.5 399.5 L 316.5 399.5 L 316.5 390.5 L 325.5 390.5 L 325.5 399.5 L 334.5 399.5 L 334.5 390.5 L 325.5 390.5 L 325.5 381.5 L 334.5 381.5 L 334.5 371.5 L 344.5 371.5 L 344.5 381.5 L 353.5 381.5 L 353.5 371.5 L 344.5 371.5 L 344.5 362.5 L 334.5 362.5 L 334.5 371.5 L 325.5 371.5 L 325.5 362.5 L 334.5 362.5 L 334.5 353.5 L 325.5 353.5 L 325.5 344.5 L 334.5 344.5 L 334.5 334.5 L 344.5 334.5 L 344.5 344.5 L 334.5 344.5 L 334.5 353.5 L 344.5 353.5 L 344.5 362.5 L 353.5 362.5 L 353.5 353.5 L 362.5 353.5 L 362.5 362.5 L 371.5 362.5 L 371.5 353.5 L 362.5 353.5 L 362.5 344.5 L 371.5 344.5 L 371.5 334.5 L 381.5 334.5 L 381.5 344.5 L 371.5 344.5 L 371.5 353.5 L 381.5 353.5 L 381.5 362.5 L 390.5 362.5 L 390.5 353.5 L 399.5 353.5 L 399.5 362.5 L 390.5 362.5 L 390.5 371.5 L 399.5 371.5 L 399.5 381.5 L 390.5 381.5 L 390.5 390.5 L 381.5 390.5 L 381.5 381.5 L 390.5 381.5 L 390.5 371.5 L 381.5 371.5 L 381.5 362.5 L 371.5 362.5 L 371.5 371.5 L 362.5 371.5 L 362.5 362.5 L 353.5 362.5 L 353.5 371.5 L 362.5 371.5 L 362.5 381.5 L 353.5 381.5 L 353.5 390.5 L 344.5 390.5 L 344.5 381.5 L 334.5 381.5 L 334.5 390.5 L 344.5 390.5 L 344.5 399.5 L 353.5 399.5 L 353.5 390.5 L 362.5 390.5 L 362.5 399.5 L 353.5 399.5 L 353.5 408.5 L 362.5 408.5 L 362.5 418.5 L 353.5 418.5 L 353.5 427.5 L 344.5 427.5 L 344.5 418.5 L 334.5 418.5 L 334.5 427.5 L 344.5 427.5 L 344.5 436.5 L 353.5 436.5 L 353.5 427.5 L 362.5 427.5 L 362.5 436.5 L 371.5 436.5 L 371.5 427.5 L 362.5 427.5 L 362.5 418.5 L 371.5 418.5 L 371.5 408.5 L 381.5 408.5 L 381.5 418.5 L 371.5 418.5 L 371.5 427.5 L 381.5 427.5 L 381.5 436.5 L 390.5 436.5 L 390.5 427.5 L 399.5 427.5 L 399.5 436.5 L 390.5 436.5 L 390.5 446.5 L 399.5 446.5 L 399.5 455.5 L 390.5 455.5 L 390.5 464.5 L 381.5 464.5 L 381.5 455.5 L 371.5 455.5 L 371.5 464.5 L 381.5 464.5 L 381.5 473.5 L 390.5 473.5 L 390.5 464.5 L 399.5 464.5 L 399.5 473.5 L 408.5 473.5 L 408.5 464.5 L 399.5 464.5 L 399.5 455.5 L 408.5 455.5 L 408.5 446.5 L 418.5 446.5 L 418.5 455.5 L 427.5 455.5 L 427.5 446.5 L 418.5 446.5 L 418.5 436.5 L 408.5 436.5 L 408.5 446.5 L 399.5 446.5 L 399.5 436.5 L 408.5 436.5 L 408.5 427.5 L 399.5 427.5 L 399.5 418.5 L 408.5 418.5 L 408.5 408.5 L 418.5 408.5 L 418.5 418.5 L 408.5 418.5 L 408.5 427.5 L 418.5 427.5 L 418.5 436.5 L 427.5 436.5 L 427.5 427.5 L 436.5 427.5 L 436.5 436.5 L 446.5 436.5 L 446.5 427.5 L 436.5 427.5 L 436.5 418.5 L 446.5 418.5 L 446.5 408.5 L 455.5 408.5 L 455.5 418.5 L 446.5 418.5 L 446.5 427.5 L 455.5 427.5 L 455.5 436.5 L 464.5 436.5 L 464.5 427.5 L 473.5 427.5 L 473.5 436.5 L 464.5 436.5 L 464.5 446.5 L 473.5 446.5 L 473.5 455.5 L 464.5 455.5 L 464.5 464.5 L 455.5 464.5 L 455.5 455.5 L 446.5 455.5 L 446.5 464.5 L 455.5 464.5 L 455.5 473.5 L 464.5 473.5 L 464.5 464.5 L 473.5 464.5 L 473.5 473.5 L 483.5 473.5 L 483.5 464.5 L 473.5 464.5 L 473.5 455.5 L 483.5 455.5 L 483.5 446.5 L 492.5 446.5 L 492.5 455.5 L 501.5 455.5 L 501.5 446.5 L 492.5 446.5 L 492.5 436.5 L 483.5 436.5 L 483.5 446.5 L 473.5 446.5 L 473.5 436.5 L 483.5 436.5 L 483.5 427.5 L 473.5 427.5 L 473.5 418.5 L 483.5 418.5 L 483.5 408.5 L 492.5 408.5 L 492.5 418.5 L 501.5 418.5 L 501.5 408.5 L 492.5 408.5 L 492.5 399.5 L 483.5 399.5 L 483.5 408.5 L 473.5 408.5 L 473.5 399.5 L 464.5 399.5 L 464.5 408.5 L 473.5 408.5 L 473.5 418.5 L 464.5 418.5 L 464.5 427.5 L 455.5 427.5 L 455.5 418.5 L 464.5 418.5 L 464.5 408.5 L 455.5 408.5 L 455.5 399.5 L 446.5 399.5 L 446.5 408.5 L 436.5 408.5 L 436.5 399.5 L 446.5 399.5 L 446.5 390.5 L 436.5 390.5 L 436.5 381.5 L 446.5 381.5 L 446.5 371.5 L 455.5 371.5 L 455.5 381.5 L 446.5 381.5 L 446.5 390.5 L 455.5 390.5 L 455.5 399.5 L 464.5 399.5 L 464.5 390.5 L 473.5 390.5 L 473.5 399.5 L 483.5 399.5 L 483.5 390.5 L 473.5 390.5 L 473.5 381.5 L 483.5 381.5 L 483.5 371.5 L 492.5 371.5 L 492.5 381.5 L 501.5 381.5 L 501.5 371.5 L 492.5 371.5 L 492.5 362.5 L 483.5 362.5 L 483.5 371.5 L 473.5 371.5 L 473.5 362.5 L 483.5 362.5 L 483.5 353.5 L 473.5 353.5 L 473.5 344.5 L 483.5 344.5 L 483.5 334.5 L 492.5 334.5 L 492.5 344.5 L 483.5 344.5 L 483.5 353.5 L 492.5 353.5 L 492.5 362.5 L 501.5 362.5 L 501.5 353.5 L 511.5 353.5 L 511.5 362.5 L 520.5 362.5 L 520.5 353.5 L 511.5 353.5 L 511.5 344.5 L 520.5 344.5 L 520.5 334.5 L 529.5 334.5 L 529.5 344.5 L 520.5 344.5 L 520.5 353.5 L 529.5 353.5 L 529.5 362.5 L 538.5 362.5 L 538.5 353.5 L 548.5 353.5 L 548.5 362.5 L 538.5 362.5 L 538.5 371.5 L 548.5 371.5 L 548.5 381.5 L 538.5 381.5 L 538.5 390.5 L 529.5 390.5 L 529.5 381.5 L 538.5 381.5 L 538.5 371.5 L 529.5 371.5 L 529.5 362.5 L 520.5 362.5 L 520.5 371.5 L 511.5 371.5 L 511.5 362.5 L 501.5 362.5 L 501.5 371.5 L 511.5 371.5 L 511.5 381.5 L 501.5 381.5 L 501.5 390.5 L 492.5 390.5 L 492.5 381.5 L 483.5 381.5 L 483.5 390.5 L 492.5 390.5 L 492.5 399.5 L 501.5 399.5 L 501.5 390.5 L 511.5 390.5 L 511.5 399.5 L 501.5 399.5 L 501.5 408.5 L 511.5 408.5 L 511.5 418.5 L 501.5 418.5 L 501.5 427.5 L 492.5 427.5 L 492.5 418.5 L 483.5 418.5 L 483.5 427.5 L 492.5 427.5 L 492.5 436.5 L 501.5 436.5 L 501.5 427.5 L 511.5 427.5 L 511.5 436.5 L 520.5 436.5 L 520.5 427.5 L 511.5 427.5 L 511.5 418.5 L 520.5 418.5 L 520.5 408.5 L 529.5 408.5 L 529.5 418.5 L 520.5 418.5 L 520.5 427.5 L 529.5 427.5 L 529.5 436.5 L 538.5 436.5 L 538.5 427.5 L 548.5 427.5 L 548.5 436.5 L 538.5 436.5 L 538.5 446.5 L 548.5 446.5 L 548.5 455.5 L 538.5 455.5 L 538.5 464.5 L 529.5 464.5 L 529.5 455.5 L 520.5 455.5 L 520.5 464.5 L 529.5 464.5 L 529.5 473.5 L 538.5 473.5 L 538.5 464.5 L 548.5 464.5 L 548.5 473.5 L 557.5 473.5 L 557.5 464.5 L 548.5 464.5 L 548.5 455.5 L 557.5 455.5 L 557.5 446.5 L 566.5 446.5 L 566.5 455.5 L 576.5 455.5 L 576.5 446.5 L 566.5 446.5 L 566.5 436.5 L 557.5 436.5 L 557.5 446.5 L 548.5 446.5 L 548.5 436.5 L 557.5 436.5 L 557.5 427.5 L 548.5 427.5 L 548.5 418.5 L 557.5 418.5 L 557.5 408.5 L 566.5 408.5 L 566.5 418.5 L 557.5 418.5 L 557.5 427.5 L 566.5 427.5 L 566.5 436.5 L 576.5 436.5 L 576.5 427.5 L 585.5 427.5 L 585.5 436.5 L 594.5 436.5 L 594.5 427.5 L 585.5 427.5 L 585.5 418.5 L 594.5 418.5 L 594.5 408.5 L 603.5 408.5 L 603.5 418.5 L 594.5 418.5 L 594.5 427.5 L 603.5 427.5 L 603.5 436.5 L 613.5 436.5 L 613.5 427.5 L 622.5 427.5 L 622.5 436.5 L 613.5 436.5 L 613.5 446.5 L 622.5 446.5 L 622.5 455.5 L 613.5 455.5 L 613.5 464.5 L 603.5 464.5 L 603.5 455.5 L 613.5 455.5 L 613.5 446.5 L 603.5 446.5 L 603.5 436.5 L 594.5 436.5 L 594.5 446.5 L 585.5 446.5 L 585.5 436.5 L 576.5 436.5 L 576.5 446.5 L 585.5 446.5 L 585.5 455.5 L 576.5 455.5 L 576.5 464.5 L 566.5 464.5 L 566.5 455.5 L 557.5 455.5 L 557.5 464.5 L 566.5 464.5 L 566.5 473.5 L 576.5 473.5 L 576.5 464.5 L 585.5 464.5 L 585.5 473.5 L 576.5 473.5 L 576.5 483.5 L 585.5 483.5 L 585.5 492.5 L 576.5 492.5 L 576.5 501.5 L 566.5 501.5 L 566.5 492.5 L 557.5 492.5 L 557.5 501.5 L 566.5 501.5 L 566.5 511.5 L 576.5 511.5 L 576.5 501.5 L 585.5 501.5 L 585.5 511.5 L 594.5 511.5 L 594.5 501.5 L 585.5 501.5 L 585.5 492.5 L 594.5 492.5 L 594.5 483.5 L 603.5 483.5 L 603.5 492.5 L 594.5 492.5 L 594.5 501.5 L 603.5 501.5 L 603.5 511.5 L 613.5 511.5 L 613.5 501.5 L 622.5 501.5 L 622.5 511.5 L 613.5 511.5 L 613.5 520.5 L 622.5 520.5 L 622.5 529.5 L 613.5 529.5 L 613.5 538.5 L 603.5 538.5 L 603.5 529.5 L 613.5 529.5 L 613.5 520.5 L 603.5 520.5 L 603.5 511.5 L 594.5 511.5 L 594.5 520.5 L 585.5 520.5 L 585.5 511.5 L 576.5 511.5 L 576.5 520.5 L 585.5 520.5 L 585.5 529.5 L 576.5 529.5 L 576.5 538.5 L 566.5 538.5 L 566.5 529.5 L 557.5 529.5 L 557.5 538.5 L 566.5 538.5 L 566.5 548.5 L 576.5 548.5 L 576.5 538.5 L 585.5 538.5 L 585.5 548.5 L 576.5 548.5 L 576.5 557.5 L 585.5 557.5 L 585.5 566.5 L 576.5 566.5 L 576.5 576.5 L 566.5 576.5 L 566.5 566.5 L 576.5 566.5 L 576.5 557.5 L 566.5 557.5 L 566.5 548.5 L 557.5 548.5 L 557.5 557.5 L 548.5 557.5 L 548.5 548.5 L 538.5 548.5 L 538.5 557.5 L 548.5 557.5 L 548.5 566.5 L 538.5 566.5 L 538.5 576.5 L 529.5 576.5 L 529.5 566.5 L 538.5 566.5 L 538.5 557.5 L 529.5 557.5 L 529.5 548.5 L 520.5 548.5 L 520.5 557.5 L 511.5 557.5 L 511.5 548.5 L 520.5 548.5 L 520.5 538.5 L 511.5 538.5 L 511.5 529.5 L 520.5 529.5 L 520.5 520.5 L 529.5 520.5 L 529.5 529.5 "/>
</g>
</svg>
