<!DOCTYPE svg PUBLIC "-//W3C//DTD SVG 1.1//EN" "http://www.w3.org/Graphics/SVG/1.1/DTD/svg11.dtd">
<svg xmlns="http://www.w3.org/2000/svg" width="1000px" height="300px" viewBox="0 0 1 0.3"><linearGradient id="Gradient"><stop offset="0%" stop-color="blue" /><stop offset="33%" stop-color="green" /><stop offset="66%" stop-color="yellow" /><stop offset="100%" stop-color="red" /></linearGradient><path d="M 0 0 M 0.000000 0.280000 M 0.050000 0.280000 L 0.053704 0.280000 L 0.055556 0.276792 L 0.057407 0.280000 L 0.061111 0.280000 L 0.062963 0.276792 L 0.061111 0.273585 L 0.064815 0.273585 L 0.066667 0.270377 L 0.068519 0.273585 L 0.072222 0.273585 L 0.070370 0.276792 L 0.072222 0.280000 L 0.075926 0.280000 L 0.077778 0.276792 L 0.079630 0.280000 L 0.083333 0.280000 L 0.085185 0.276792 L 0.083333 0.273585 L 0.087037 0.273585 L 0.088889 0.270377 L 0.087037 0.267170 L 0.083333 0.267170 L 0.085185 0.263962 L 0.083333 0.260755 L 0.087037 0.260755 L 0.088889 0.257547 L 0.090741 0.260755 L 0.094444 0.260755 L 0.096296 0.257547 L 0.094444 0.254340 L 0.098148 0.254340 L 0.100000 0.251132 L 0.101852 0.254340 L 0.105556 0.254340 L 0.103704 0.257547 L 0.105556 0.260755 L 0.109259 0.260755 L 0.111111 0.257547 L 0.112963 0.260755 L 0.116667 0.260755 L 0.114815 0.263962 L 0.116667 0.267170 L 0.112963 0.267170 L 0.111111 0.270377 L 0.112963 0.273585 L 0.116667 0.273585 L 0.114815 0.276792 L 0.116667 0.280000 L 0.120370 0.280000 L 0.122222 0.276792 L 0.124074 0.280000 L 0.127778 0.280000 L 0.129630 0.276792 L 0.127778 0.273585 L 0.131481 0.273585 L 0.133333 0.270377 L 0.135185 0.273585 L 0.138889 0.273585 L 0.137037 0.276792 L 0.138889 0.280000 L 0.142593 0.280000 L 0.144444 0.276792 L 0.146296 0.280000 L 0.150000 0.280000 L 0.151852 0.276792 L 0.150000 0.273585 L 0.153704 0.273585 L 0.155556 0.270377 L 0.153704 0.267170 L 0.150000 0.267170 L 0.151852 0.263962 L 0.150000 0.260755 L 0.153704 0.260755 L 0.155556 0.257547 L 0.157407 0.260755 L 0.161111 0.260755 L 0.162963 0.257547 L 0.161111 0.254340 L 0.164815 0.254340 L 0.166667 0.251132 L 0.164815 0.247925 L 0.161111 0.247925 L 0.162963 0.244717 L 0.161111 0.241510 L 0.157407 0.241510 L 0.155556 0.244717 L 0.153704 0.241510 L 0.150000 0.241510 L 0.151852 0.238302 L 0.150000 0.235095 L 0.153704 0.235095 L 0.155556 0.231887 L 0.153704 0.228680 L 0.150000 0.228680 L 0.151852 0.225472 L 0.150000 0.222265 L 0.153704 0.222265 L 0.155556 0.219057 L 0.157407 0.222265 L 0.161111 0.222265 L 0.162963 0.219057 L 0.161111 0.215850 L 0.164815 0.215850 L 0.166667 0.212642 L 0.168519 0.215850 L 0.172222 0.215850 L 0.170370 0.219057 L 0.172222 0.222265 L 0.175926 0.222265 L 0.177778 0.219057 L 0.179630 0.222265 L 0.183333 0.222265 L 0.185185 0.219057 L 0.183333 0.215850 L 0.187037 0.215850 L 0.188889 0.212642 L 0.187037 0.209435 L 0.183333 0.209435 L 0.185185 0.206227 L 0.183333 0.203020 L 0.187037 0.203020 L 0.188889 0.199812 L 0.190741 0.203020 L 0.194444 0.203020 L 0.196296 0.199812 L 0.194444 0.196605 L 0.198148 0.196605 L 0.200000 0.193397 L 0.201852 0.196605 L 0.205556 0.196605 L 0.203704 0.199812 L 0.205556 0.203020 L 0.209259 0.203020 L 0.211111 0.199812 L 0.212963 0.203020 L 0.216667 0.203020 L 0.214815 0.206227 L 0.216667 0.209435 L 0.212963 0.209435 L 0.211111 0.212642 L 0.212963 0.215850 L 0.216667 0.215850 L 0.214815 0.219057 L 0.216667 0.222265 L 0.220370 0.222265 L 0.222222 0.219057 L 0.224074 0.222265 L 0.227778 0.222265 L 0.229630 0.219057 L 0.227778 0.215850 L 0.231481 0.215850 L 0.233333 0.212642 L 0.235185 0.215850 L 0.238889 0.215850 L 0.237037 0.219057 L 0.238889 0.222265 L 0.242593 0.222265 L 0.244444 0.219057 L 0.246296 0.222265 L 0.250000 0.222265 L 0.248148 0.225472 L 0.250000 0.228680 L 0.246296 0.228680 L 0.244444 0.231887 L 0.246296 0.235095 L 0.250000 0.235095 L 0.248148 0.238302 L 0.250000 0.241510 L 0.246296 0.241510 L 0.244444 0.244717 L 0.242593 0.241510 L 0.238889 0.241510 L 0.237037 0.244717 L 0.238889 0.247925 L 0.235185 0.247925 L 0.233333 0.251132 L 0.235185 0.254340 L 0.238889 0.254340 L 0.237037 0.257547 L 0.238889 0.260755 L 0.242593 0.260755 L 0.244444 0.257547 L 0.246296 0.260755 L 0.250000 0.260755 L 0.248148 0.263962 L 0.250000 0.267170 L 0.246296 0.267170 L 0.244444 0.270377 L 0.246296 0.273585 L 0.250000 0.273585 L 0.248148 0.276792 L 0.250000 0.280000 L 0.253704 0.280000 L 0.255556 0.276792 L 0.257407 0.280000 L 0.261111 0.280000 L 0.262963 0.276792 L 0.261111 0.273585 L 0.264815 0.273585 L 0.266667 0.270377 L 0.268519 0.273585 L 0.272222 0.273585 L 0.270370 0.276792 L 0.272222 0.280000 L 0.275926 0.280000 L 0.277778 0.276792 L 0.279630 0.280000 L 0.283333 0.280000 L 0.285185 0.276792 L 0.283333 0.273585 L 0.287037 0.273585 L 0.288889 0.270377 L 0.287037 0.267170 L 0.283333 0.267170 L 0.285185 0.263962 L 0.283333 0.260755 L 0.287037 0.260755 L 0.288889 0.257547 L 0.290741 0.260755 L 0.294444 0.260755 L 0.296296 0.257547 L 0.294444 0.254340 L 0.298148 0.254340 L 0.300000 0.251132 L 0.301852 0.254340 L 0.305556 0.254340 L 0.303704 0.257547 L 0.305556 0.260755 L 0.309259 0.260755 L 0.311111 0.257547 L 0.312963 0.260755 L 0.316667 0.260755 L 0.314815 0.263962 L 0.316667 0.267170 L 0.312963 0.267170 L 0.311111 0.270377 L 0.312963 0.273585 L 0.316667 0.273585 L 0.314815 0.276792 L 0.316667 0.280000 L 0.320370 0.280000 L 0.322222 0.276792 L 0.324074 0.280000 L 0.327778 0.280000 L 0.329630 0.276792 L 0.327778 0.273585 L 0.331481 0.273585 L 0.333333 0.270377 L 0.335185 0.273585 L 0.338889 0.273585 L 0.337037 0.276792 L 0.338889 0.280000 L 0.342593 0.280000 L 0.344444 0.276792 L 0.346296 0.280000 L 0.350000 0.280000 L 0.351852 0.276792 L 0.350000 0.273585 L 0.353704 0.273585 L 0.355556 0.270377 L 0.353704 0.267170 L 0.350000 0.267170 L 0.351852 0.263962 L 0.350000 0.260755 L 0.353704 0.260755 L 0.355556 0.257547 L 0.357407 0.260755 L 0.361111 0.260755 L 0.362963 0.257547 L 0.361111 0.254340 L 0.364815 0.254340 L 0.366667 0.251132 L 0.364815 0.247925 L 0.361111 0.247925 L 0.362963 0.244717 L 0.361111 0.241510 L 0.357407 0.241510 L 0.355556 0.244717 L 0.353704 0.241510 L 0.350000 0.241510 L 0.351852 0.238302 L 0.350000 0.235095 L 0.353704 0.235095 L 0.355556 0.231887 L 0.353704 0.228680 L 0.350000 0.228680 L 0.351852 0.225472 L 0.350000 0.222265 L 0.353704 0.222265 L 0.355556 0.219057 L 0.357407 0.222265 L 0.361111 0.222265 L 0.362963 0.219057 L 0.361111 0.215850 L 0.364815 0.215850 L 0.366667 0.212642 L 0.368519 0.215850 L 0.372222 0.215850 L 0.370370 0.219057 L 0.372222 0.222265 L 0.375926 0.222265 L 0.377778 0.219057 L 0.379630 0.222265 L 0.383333 0.222265 L 0.385185 0.219057 L 0.383333 0.215850 L 0.387037 0.215850 L 0.388889 0.212642 L 0.387037 0.209435 L 0.383333 0.209435 L 0.385185 0.206227 L 0.383333 0.203020 L 0.387037 0.203020 L 0.388889 0.199812 L 0.390741 0.203020 L 0.394444 0.203020 L 0.396296 0.199812 L 0.394444 0.196605 L 0.398148 0.196605 L 0.400000 0.193397 L 0.398148 0.190190 L 0.394444 0.190190 L 0.396296 0.186982 L 0.394444 0.183775 L 0.390741 0.183775 L 0.388889 0.186982 L 0.387037 0.183775 L 0.383333 0.183775 L 0.385185 0.180567 L 0.383333 0.177360 L 0.387037 0.177360 L 0.388889 0.174152 L 0.387037 0.170945 L 0.383333 0.170945 L 0.385185 0.167737 L 0.383333 0.164530 L 0.379630 0.164530 L 0.377778 0.167737 L 0.375926 0.164530 L 0.372222 0.164530 L 0.370370 0.167737 L 0.372222 0.170945 L 0.368519 0.170945 L 0.366667 0.174152 L 0.364815 0.170945 L 0.361111 0.170945 L 0.362963 0.167737 L 0.361111 0.164530 L 0.357407 0.164530 L 0.355556 0.167737 L 0.353704 0.164530 L 0.350000 0.164530 L 0.351852 0.161322 L 0.350000 0.158115 L 0.353704 0.158115 L 0.355556 0.154907 L 0.353704 0.151700 L 0.350000 0.151700 L 0.351852 0.148492 L 0.350000 0.145285 L 0.353704 0.145285 L 0.355556 0.142077 L 0.357407 0.145285 L 0.361111 0.145285 L 0.362963 0.142077 L 0.361111 0.138870 L 0.364815 0.138870 L 0.366667 0.135662 L 0.364815 0.132455 L 0.361111 0.132455 L 0.362963 0.129247 L 0.361111 0.126040 L 0.357407 0.126040 L 0.355556 0.129247 L 0.353704 0.126040 L 0.350000 0.126040 L 0.351852 0.122832 L 0.350000 0.119625 L 0.353704 0.119625 L 0.355556 0.116417 L 0.353704 0.113210 L 0.350000 0.113210 L 0.351852 0.110002 L 0.350000 0.106795 L 0.353704 0.106795 L 0.355556 0.103587 L 0.357407 0.106795 L 0.361111 0.106795 L 0.362963 0.103587 L 0.361111 0.100380 L 0.364815 0.100380 L 0.366667 0.097172 L 0.368519 0.100380 L 0.372222 0.100380 L 0.370370 0.103587 L 0.372222 0.106795 L 0.375926 0.106795 L 0.377778 0.103587 L 0.379630 0.106795 L 0.383333 0.106795 L 0.385185 0.103587 L 0.383333 0.100380 L 0.387037 0.100380 L 0.388889 0.097172 L 0.387037 0.093965 L 0.383333 0.093965 L 0.385185 0.090757 L 0.383333 0.087550 L 0.387037 0.087550 L 0.388889 0.084342 L 0.390741 0.087550 L 0.394444 0.087550 L 0.396296 0.084342 L 0.394444 0.081135 L 0.398148 0.081135 L 0.400000 0.077927 L 0.401852 0.081135 L 0.405556 0.081135 L 0.403704 0.084342 L 0.405556 0.087550 L 0.409259 0.087550 L 0.411111 0.084342 L 0.412963 0.087550 L 0.416667 0.087550 L 0.414815 0.090757 L 0.416667 0.093965 L 0.412963 0.093965 L 0.411111 0.097172 L 0.412963 0.100380 L 0.416667 0.100380 L 0.414815 0.103587 L 0.416667 0.106795 L 0.420370 0.106795 L 0.422222 0.103587 L 0.424074 0.106795 L 0.427778 0.106795 L 0.429630 0.103587 L 0.427778 0.100380 L 0.431481 0.100380 L 0.433333 0.097172 L 0.435185 0.100380 L 0.438889 0.100380 L 0.437037 0.103587 L 0.438889 0.106795 L 0.442593 0.106795 L 0.444444 0.103587 L 0.446296 0.106795 L 0.450000 0.106795 L 0.451852 0.103587 L 0.450000 0.100380 L 0.453704 0.100380 L 0.455556 0.097172 L 0.453704 0.093965 L 0.450000 0.093965 L 0.451852 0.090757 L 0.450000 0.087550 L 0.453704 0.087550 L 0.455556 0.084342 L 0.457407 0.087550 L 0.461111 0.087550 L 0.462963 0.084342 L 0.461111 0.081135 L 0.464815 0.081135 L 0.466667 0.077927 L 0.464815 0.074720 L 0.461111 0.074720 L 0.462963 0.071512 L 0.461111 0.068305 L 0.457407 0.068305 L 0.455556 0.071512 L 0.453704 0.068305 L 0.450000 0.068305 L 0.451852 0.065097 L 0.450000 0.061890 L 0.453704 0.061890 L 0.455556 0.058682 L 0.453704 0.055475 L 0.450000 0.055475 L 0.451852 0.052267 L 0.450000 0.049060 L 0.453704 0.049060 L 0.455556 0.045852 L 0.457407 0.049060 L 0.461111 0.049060 L 0.462963 0.045852 L 0.461111 0.042645 L 0.464815 0.042645 L 0.466667 0.039437 L 0.468519 0.042645 L 0.472222 0.042645 L 0.470370 0.045852 L 0.472222 0.049060 L 0.475926 0.049060 L 0.477778 0.045852 L 0.479630 0.049060 L 0.483333 0.049060 L 0.485185 0.045852 L 0.483333 0.042645 L 0.487037 0.042645 L 0.488889 0.039437 L 0.487037 0.036230 L 0.483333 0.036230 L 0.485185 0.033022 L 0.483333 0.029815 L 0.487037 0.029815 L 0.488889 0.026607 L 0.490741 0.029815 L 0.494444 0.029815 L 0.496296 0.026607 L 0.494444 0.023400 L 0.498148 0.023400 L 0.500000 0.020192 L 0.501852 0.023400 L 0.505556 0.023400 L 0.503704 0.026607 L 0.505556 0.029815 L 0.509259 0.029815 L 0.511111 0.026607 L 0.512963 0.029815 L 0.516667 0.029815 L 0.514815 0.033022 L 0.516667 0.036230 L 0.512963 0.036230 L 0.511111 0.039437 L 0.512963 0.042645 L 0.516667 0.042645 L 0.514815 0.045852 L 0.516667 0.049060 L 0.520370 0.049060 L 0.522222 0.045852 L 0.524074 0.049060 L 0.527778 0.049060 L 0.529630 0.045852 L 0.527778 0.042645 L 0.531481 0.042645 L 0.533333 0.039437 L 0.535185 0.042645 L 0.538889 0.042645 L 0.537037 0.045852 L 0.538889 0.049060 L 0.542593 0.049060 L 0.544444 0.045852 L 0.546296 0.049060 L 0.550000 0.049060 L 0.548148 0.052267 L 0.550000 0.055475 L 0.546296 0.055475 L 0.544444 0.058682 L 0.546296 0.061890 L 0.550000 0.061890 L 0.548148 0.065097 L 0.550000 0.068305 L 0.546296 0.068305 L 0.544444 0.071512 L 0.542593 0.068305 L 0.538889 0.068305 L 0.537037 0.071512 L 0.538889 0.074720 L 0.535185 0.074720 L 0.533333 0.077927 L 0.535185 0.081135 L 0.538889 0.081135 L 0.537037 0.084342 L 0.538889 0.087550 L 0.542593 0.087550 L 0.544444 0.084342 L 0.546296 0.087550 L 0.550000 0.087550 L 0.548148 0.090757 L 0.550000 0.093965 L 0.546296 0.093965 L 0.544444 0.097172 L 0.546296 0.100380 L 0.550000 0.100380 L 0.548148 0.103587 L 0.550000 0.106795 L 0.553704 0.106795 L 0.555556 0.103587 L 0.557407 0.106795 L 0.561111 0.106795 L 0.562963 0.103587 L 0.561111 0.100380 L 0.564815 0.100380 L 0.566667 0.097172 L 0.568519 0.100380 L 0.572222 0.100380 L 0.570370 0.103587 L 0.572222 0.106795 L 0.575926 0.106795 L 0.577778 0.103587 L 0.579630 0.106795 L 0.583333 0.106795 L 0.585185 0.103587 L 0.583333 0.100380 L 0.587037 0.100380 L 0.588889 0.097172 L 0.587037 0.093965 L 0.583333 0.093965 L 0.585185 0.090757 L 0.583333 0.087550 L 0.587037 0.087550 L 0.588889 0.084342 L 0.590741 0.087550 L 0.594444 0.087550 L 0.596296 0.084342 L 0.594444 0.081135 L 0.598148 0.081135 L 0.600000 0.077927 L 0.601852 0.081135 L 0.605556 0.081135 L 0.603704 0.084342 L 0.605556 0.087550 L 0.609259 0.087550 L 0.611111 0.084342 L 0.612963 0.087550 L 0.616667 0.087550 L 0.614815 0.090757 L 0.616667 0.093965 L 0.612963 0.093965 L 0.611111 0.097172 L 0.612963 0.100380 L 0.616667 0.100380 L 0.614815 0.103587 L 0.616667 0.106795 L 0.620370 0.106795 L 0.622222 0.103587 L 0.624074 0.106795 L 0.627778 0.106795 L 0.629630 0.103587 L 0.627778 0.100380 L 0.631481 0.100380 L 0.633333 0.097172 L 0.635185 0.100380 L 0.638889 0.100380 L 0.637037 0.103587 L 0.638889 0.106795 L 0.642593 0.106795 L 0.644444 0.103587 L 0.646296 0.106795 L 0.650000 0.106795 L 0.648148 0.110002 L 0.650000 0.113210 L 0.646296 0.113210 L 0.644444 0.116417 L 0.646296 0.119625 L 0.650000 0.119625 L 0.648148 0.122832 L 0.650000 0.126040 L 0.646296 0.126040 L 0.644444 0.129247 L 0.642593 0.126040 L 0.638889 0.126040 L 0.637037 0.129247 L 0.638889 0.132455 L 0.635185 0.132455 L 0.633333 0.135662 L 0.635185 0.138870 L 0.638889 0.138870 L 0.637037 0.142077 L 0.638889 0.145285 L 0.642593 0.145285 L 0.644444 0.142077 L 0.646296 0.145285 L 0.650000 0.145285 L 0.648148 0.148492 L 0.650000 0.151700 L 0.646296 0.151700 L 0.644444 0.154907 L 0.646296 0.158115 L 0.650000 0.158115 L 0.648148 0.161322 L 0.650000 0.164530 L 0.646296 0.164530 L 0.644444 0.167737 L 0.642593 0.164530 L 0.638889 0.164530 L 0.637037 0.167737 L 0.638889 0.170945 L 0.635185 0.170945 L 0.633333 0.174152 L 0.631481 0.170945 L 0.627778 0.170945 L 0.629630 0.167737 L 0.627778 0.164530 L 0.624074 0.164530 L 0.622222 0.167737 L 0.620370 0.164530 L 0.616667 0.164530 L 0.614815 0.167737 L 0.616667 0.170945 L 0.612963 0.170945 L 0.611111 0.174152 L 0.612963 0.177360 L 0.616667 0.177360 L 0.614815 0.180567 L 0.616667 0.183775 L 0.612963 0.183775 L 0.611111 0.186982 L 0.609259 0.183775 L 0.605556 0.183775 L 0.603704 0.186982 L 0.605556 0.190190 L 0.601852 0.190190 L 0.600000 0.193397 L 0.601852 0.196605 L 0.605556 0.196605 L 0.603704 0.199812 L 0.605556 0.203020 L 0.609259 0.203020 L 0.611111 0.199812 L 0.612963 0.203020 L 0.616667 0.203020 L 0.614815 0.206227 L 0.616667 0.209435 L 0.612963 0.209435 L 0.611111 0.212642 L 0.612963 0.215850 L 0.616667 0.215850 L 0.614815 0.219057 L 0.616667 0.222265 L 0.620370 0.222265 L 0.622222 0.219057 L 0.624074 0.222265 L 0.627778 0.222265 L 0.629630 0.219057 L 0.627778 0.215850 L 0.631481 0.215850 L 0.633333 0.212642 L 0.635185 0.215850 L 0.638889 0.215850 L 0.637037 0.219057 L 0.638889 0.222265 L 0.642593 0.222265 L 0.644444 0.219057 L 0.646296 0.222265 L 0.650000 0.222265 L 0.648148 0.225472 L 0.650000 0.228680 L 0.646296 0.228680 L 0.644444 0.231887 L 0.646296 0.235095 L 0.650000 0.235095 L 0.648148 0.238302 L 0.650000 0.241510 L 0.646296 0.241510 L 0.644444 0.244717 L 0.642593 0.241510 L 0.638889 0.241510 L 0.637037 0.244717 L 0.638889 0.247925 L 0.635185 0.247925 L 0.633333 0.251132 L 0.635185 0.254340 L 0.638889 0.254340 L 0.637037 0.257547 L 0.638889 0.260755 L 0.642593 0.260755 L 0.644444 0.257547 L 0.646296 0.260755 L 0.650000 0.260755 L 0.648148 0.263962 L 0.650000 0.267170 L 0.646296 0.267170 L 0.644444 0.270377 L 0.646296 0.273585 L 0.650000 0.273585 L 0.648148 0.276792 L 0.650000 0.280000 L 0.653704 0.280000 L 0.655556 0.276792 L 0.657407 0.280000 L 0.661111 0.280000 L 0.662963 0.276792 L 0.661111 0.273585 L 0.664815 0.273585 L 0.666667 0.270377 L 0.668519 0.273585 L 0.672222 0.273585 L 0.670370 0.276792 L 0.672222 0.280000 L 0.675926 0.280000 L 0.677778 0.276792 L 0.679630 0.280000 L 0.683333 0.280000 L 0.685185 0.276792 L 0.683333 0.273585 L 0.687037 0.273585 L 0.688889 0.270377 L 0.687037 0.267170 L 0.683333 0.267170 L 0.685185 0.263962 L 0.683333 0.260755 L 0.687037 0.260755 L 0.688889 0.257547 L 0.690741 0.260755 L 0.694444 0.260755 L 0.696296 0.257547 L 0.694444 0.254340 L 0.698148 0.254340 L 0.700000 0.251132 L 0.701852 0.254340 L 0.705556 0.254340 L 0.703704 0.257547 L 0.705556 0.260755 L 0.709259 0.260755 L 0.711111 0.257547 L 0.712963 0.260755 L 0.716667 0.260755 L 0.714815 0.263962 L 0.716667 0.267170 L 0.712963 0.267170 L 0.711111 0.270377 L 0.712963 0.273585 L 0.716667 0.273585 L 0.714815 0.276792 L 0.716667 0.280000 L 0.720370 0.280000 L 0.722222 0.276792 L 0.724074 0.280000 L 0.727778 0.280000 L 0.729630 0.276792 L 0.727778 0.273585 L 0.731481 0.273585 L 0.733333 0.270377 L 0.735185 0.273585 L 0.738889 0.273585 L 0.737037 0.276792 L 0.738889 0.280000 L 0.742593 0.280000 L 0.744444 0.276792 L 0.746296 0.280000 L 0.750000 0.280000 L 0.751852 0.276792 L 0.750000 0.273585 L 0.753704 0.273585 L 0.755556 0.270377 L 0.753704 0.267170 L 0.750000 0.267170 L 0.751852 0.263962 L 0.750000 0.260755 L 0.753704 0.260755 L 0.755556 0.257547 L 0.757407 0.260755 L 0.761111 0.260755 L 0.762963 0.257547 L 0.761111 0.254340 L 0.764815 0.254340 L 0.766667 0.251132 L 0.764815 0.247925 L 0.761111 0.247925 L 0.762963 0.244717 L 0.761111 0.241510 L 0.757407 0.241510 L 0.755556 0.244717 L 0.753704 0.241510 L 0.750000 0.241510 L 0.751852 0.238302 L 0.750000 0.235095 L 0.753704 0.235095 L 0.755556 0.231887 L 0.753704 0.228680 L 0.750000 0.228680 L 0.751852 0.225472 L 0.750000 0.222265 L 0.753704 0.222265 L 0.755556 0.219057 L 0.757407 0.222265 L 0.761111 0.222265 L 0.762963 0.219057 L 0.761111 0.215850 L 0.764815 0.215850 L 0.766667 0.212642 L 0.768519 0.215850 L 0.772222 0.215850 L 0.770370 0.219057 L 0.772222 0.222265 L 0.775926 0.222265 L 0.777778 0.219057 L 0.779630 0.222265 L 0.783333 0.222265 L 0.785185 0.219057 L 0.783333 0.215850 L 0.787037 0.215850 L 0.788889 0.212642 L 0.787037 0.209435 L 0.783333 0.209435 L 0.785185 0.206227 L 0.783333 0.203020 L 0.787037 0.203020 L 0.788889 0.199812 L 0.790741 0.203020 L 0.794444 0.203020 L 0.796296 0.199812 L 0.794444 0.196605 L 0.798148 0.196605 L 0.800000 0.193397 L 0.801852 0.196605 L 0.805556 0.196605 L 0.803704 0.199812 L 0.805556 0.203020 L 0.809259 0.203020 L 0.811111 0.199812 L 0.812963 0.203020 L 0.816667 0.203020 L 0.814815 0.206227 L 0.816667 0.209435 L 0.812963 0.209435 L 0.811111 0.212642 L 0.812963 0.215850 L 0.816667 0.215850 L 0.814815 0.219057 L 0.816667 0.222265 L 0.820370 0.222265 L 0.822222 0.219057 L 0.824074 0.222265 L 0.827778 0.222265 L 0.829630 0.219057 L 0.827778 0.215850 L 0.831481 0.215850 L 0.833333 0.212642 L 0.835185 0.215850 L 0.838889 0.215850 L 0.837037 0.219057 L 0.838889 0.222265 L 0.842593 0.222265 L 0.844444 0.219057 L 0.846296 0.222265 L 0.850000 0.222265 L 0.848148 0.225472 L 0.850000 0.228680 L 0.846296 0.228680 L 0.844444 0.231887 L 0.846296 0.235095 L 0.850000 0.235095 L 0.848148 0.238302 L 0.850000 0.241510 L 0.846296 0.241510 L 0.844444 0.244717 L 0.842593 0.241510 L 0.838889 0.241510 L 0.837037 0.244717 L 0.838889 0.247925 L 0.835185 0.247925 L 0.833333 0.251132 L 0.835185 0.254340 L 0.838889 0.254340 L 0.837037 0.257547 L 0.838889 0.260755 L 0.842593 0.260755 L 0.844444 0.257547 L 0.846296 0.260755 L 0.850000 0.260755 L 0.848148 0.263962 L 0.850000 0.267170 L 0.846296 0.267170 L 0.844444 0.270377 L 0.846296 0.273585 L 0.850000 0.273585 L 0.848148 0.276792 L 0.850000 0.280000 L 0.853704 0.280000 L 0.855556 0.276792 L 0.857407 0.280000 L 0.861111 0.280000 L 0.862963 0.276792 L 0.861111 0.273585 L 0.864815 0.273585 L 0.866667 0.270377 L 0.868519 0.273585 L 0.872222 0.273585 L 0.870370 0.276792 L 0.872222 0.280000 L 0.875926 0.280000 L 0.877778 0.276792 L 0.879630 0.280000 L 0.883333 0.280000 L 0.885185 0.276792 L 0.883333 0.273585 L 0.887037 0.273585 L 0.888889 0.270377 L 0.887037 0.267170 L 0.883333 0.267170 L 0.885185 0.263962 L 0.883333 0.260755 L 0.887037 0.260755 L 0.888889 0.257547 L 0.890741 0.260755 L 0.894444 0.260755 L 0.896296 0.257547 L 0.894444 0.254340 L 0.898148 0.254340 L 0.900000 0.251132 L 0.901852 0.254340 L 0.905556 0.254340 L 0.903704 0.257547 L 0.905556 0.260755 L 0.909259 0.260755 L 0.911111 0.257547 L 0.912963 0.260755 L 0.916667 0.260755 L 0.914815 0.263962 L 0.916667 0.267170 L 0.912963 0.267170 L 0.911111 0.270377 L 0.912963 0.273585 L 0.916667 0.273585 L 0.914815 0.276792 L 0.916667 0.280000 L 0.920370 0.280000 L 0.922222 0.276792 L 0.924074 0.280000 L 0.927778 0.280000 L 0.929630 0.276792 L 0.927778 0.273585 L 0.931481 0.273585 L 0.933333 0.270377 L 0.935185 0.273585 L 0.938889 0.273585 L 0.937037 0.276792 L 0.938889 0.280000 L 0.942593 0.280000 L 0.944444 0.276792 L 0.946296 0.280000 L 0.950000 0.280000 " stroke="url(#Gradient) black" stroke-width="0.001" fill="none" /></svg>
