<?xml version="1.0" encoding="UTF-8"?>
<svg xmlns="http://www.w3.org/2000/svg" xmlns:xlink="http://www.w3.org/1999/xlink" width="700pt" height="700pt" viewBox="0 0 700 700" version="1.1">
<g id="surface1">
<path style="fill:none;stroke-width:0.5;stroke-linecap:butt;stroke-linejoin:miter;stroke:rgb(0%,0%,0%);stroke-opacity:1;stroke-miterlimit:10;" d="M 232.5 232.5 L 232.5 251.5 L 251.5 251.5 L 251.5 232.5 L 269.5 232.5 L 269.5 214.5 L 251.5 214.5 L 251.5 195.5 L 269.5 195.5 L 269.5 176.5 L 251.5 176.5 L 251.5 195.5 L 232.5 195.5 L 232.5 176.5 L 214.5 176.5 L 214.5 158.5 L 232.5 158.5 L 232.5 139.5 L 214.5 139.5 L 214.5 158.5 L 195.5 158.5 L 195.5 176.5 L 214.5 176.5 L 214.5 195.5 L 195.5 195.5 L 195.5 176.5 L 176.5 176.5 L 176.5 195.5 L 158.5 195.5 L 158.5 176.5 L 139.5 176.5 L 139.5 158.5 L 158.5 158.5 L 158.5 139.5 L 139.5 139.5 L 139.5 158.5 L 121.5 158.5 L 121.5 176.5 L 139.5 176.5 L 139.5 195.5 L 121.5 195.5 L 121.5 214.5 L 139.5 214.5 L 139.5 195.5 L 158.5 195.5 L 158.5 214.5 L 176.5 214.5 L 176.5 232.5 L 158.5 232.5 L 158.5 214.5 L 139.5 214.5 L 139.5 232.5 L 121.5 232.5 L 121.5 251.5 L 139.5 251.5 L 139.5 269.5 L 121.5 269.5 L 121.5 251.5 L 102.5 251.5 L 102.5 269.5 L 84.5 269.5 L 84.5 251.5 L 65.5 251.5 L 65.5 232.5 L 84.5 232.5 L 84.5 214.5 L 65.5 214.5 L 65.5 232.5 L 47.5 232.5 L 47.5 251.5 L 65.5 251.5 L 65.5 269.5 L 47.5 269.5 L 47.5 288.5 L 65.5 288.5 L 65.5 269.5 L 84.5 269.5 L 84.5 288.5 L 102.5 288.5 L 102.5 306.5 L 84.5 306.5 L 84.5 325.5 L 102.5 325.5 L 102.5 306.5 L 121.5 306.5 L 121.5 288.5 L 102.5 288.5 L 102.5 269.5 L 121.5 269.5 L 121.5 288.5 L 139.5 288.5 L 139.5 269.5 L 158.5 269.5 L 158.5 288.5 L 176.5 288.5 L 176.5 306.5 L 158.5 306.5 L 158.5 288.5 L 139.5 288.5 L 139.5 306.5 L 121.5 306.5 L 121.5 325.5 L 139.5 325.5 L 139.5 344.5 L 121.5 344.5 L 121.5 362.5 L 139.5 362.5 L 139.5 344.5 L 158.5 344.5 L 158.5 362.5 L 176.5 362.5 L 176.5 381.5 L 158.5 381.5 L 158.5 362.5 L 139.5 362.5 L 139.5 381.5 L 121.5 381.5 L 121.5 399.5 L 139.5 399.5 L 139.5 418.5 L 121.5 418.5 L 121.5 399.5 L 102.5 399.5 L 102.5 418.5 L 84.5 418.5 L 84.5 399.5 L 65.5 399.5 L 65.5 381.5 L 84.5 381.5 L 84.5 362.5 L 65.5 362.5 L 65.5 381.5 L 47.5 381.5 L 47.5 399.5 L 65.5 399.5 L 65.5 418.5 L 47.5 418.5 L 47.5 436.5 L 65.5 436.5 L 65.5 418.5 L 84.5 418.5 L 84.5 436.5 L 102.5 436.5 L 102.5 455.5 L 84.5 455.5 L 84.5 473.5 L 102.5 473.5 L 102.5 455.5 L 121.5 455.5 L 121.5 436.5 L 102.5 436.5 L 102.5 418.5 L 121.5 418.5 L 121.5 436.5 L 139.5 436.5 L 139.5 418.5 L 158.5 418.5 L 158.5 436.5 L 176.5 436.5 L 176.5 455.5 L 158.5 455.5 L 158.5 473.5 L 176.5 473.5 L 176.5 455.5 L 195.5 455.5 L 195.5 436.5 L 176.5 436.5 L 176.5 418.5 L 195.5 418.5 L 195.5 399.5 L 176.5 399.5 L 176.5 418.5 L 158.5 418.5 L 158.5 399.5 L 139.5 399.5 L 139.5 381.5 L 158.5 381.5 L 158.5 399.5 L 176.5 399.5 L 176.5 381.5 L 195.5 381.5 L 195.5 362.5 L 176.5 362.5 L 176.5 344.5 L 195.5 344.5 L 195.5 362.5 L 214.5 362.5 L 214.5 344.5 L 232.5 344.5 L 232.5 362.5 L 251.5 362.5 L 251.5 381.5 L 232.5 381.5 L 232.5 362.5 L 214.5 362.5 L 214.5 381.5 L 195.5 381.5 L 195.5 399.5 L 214.5 399.5 L 214.5 418.5 L 195.5 418.5 L 195.5 436.5 L 214.5 436.5 L 214.5 418.5 L 232.5 418.5 L 232.5 436.5 L 251.5 436.5 L 251.5 455.5 L 232.5 455.5 L 232.5 473.5 L 251.5 473.5 L 251.5 455.5 L 269.5 455.5 L 269.5 436.5 L 251.5 436.5 L 251.5 418.5 L 269.5 418.5 L 269.5 436.5 L 288.5 436.5 L 288.5 418.5 L 306.5 418.5 L 306.5 436.5 L 325.5 436.5 L 325.5 455.5 L 306.5 455.5 L 306.5 436.5 L 288.5 436.5 L 288.5 455.5 L 269.5 455.5 L 269.5 473.5 L 288.5 473.5 L 288.5 492.5 L 269.5 492.5 L 269.5 511.5 L 288.5 511.5 L 288.5 492.5 L 306.5 492.5 L 306.5 511.5 L 325.5 511.5 L 325.5 529.5 L 306.5 529.5 L 306.5 511.5 L 288.5 511.5 L 288.5 529.5 L 269.5 529.5 L 269.5 548.5 L 288.5 548.5 L 288.5 566.5 L 269.5 566.5 L 269.5 548.5 L 251.5 548.5 L 251.5 566.5 L 232.5 566.5 L 232.5 548.5 L 214.5 548.5 L 214.5 529.5 L 232.5 529.5 L 232.5 511.5 L 214.5 511.5 L 214.5 529.5 L 195.5 529.5 L 195.5 548.5 L 214.5 548.5 L 214.5 566.5 L 195.5 566.5 L 195.5 585.5 L 214.5 585.5 L 214.5 566.5 L 232.5 566.5 L 232.5 585.5 L 251.5 585.5 L 251.5 603.5 L 232.5 603.5 L 232.5 622.5 L 251.5 622.5 L 251.5 603.5 L 269.5 603.5 L 269.5 585.5 L 251.5 585.5 L 251.5 566.5 L 269.5 566.5 L 269.5 585.5 L 288.5 585.5 L 288.5 566.5 L 306.5 566.5 L 306.5 585.5 L 325.5 585.5 L 325.5 603.5 L 306.5 603.5 L 306.5 622.5 L 325.5 622.5 L 325.5 603.5 L 344.5 603.5 L 344.5 585.5 L 325.5 585.5 L 325.5 566.5 L 344.5 566.5 L 344.5 548.5 L 325.5 548.5 L 325.5 566.5 L 306.5 566.5 L 306.5 548.5 L 288.5 548.5 L 288.5 529.5 L 306.5 529.5 L 306.5 548.5 L 325.5 548.5 L 325.5 529.5 L 344.5 529.5 L 344.5 511.5 L 325.5 511.5 L 325.5 492.5 L 344.5 492.5 L 344.5 511.5 L 362.5 511.5 L 362.5 492.5 L 381.5 492.5 L 381.5 511.5 L 399.5 511.5 L 399.5 529.5 L 381.5 529.5 L 381.5 548.5 L 399.5 548.5 L 399.5 529.5 L 418.5 529.5 L 418.5 511.5 L 399.5 511.5 L 399.5 492.5 L 418.5 492.5 L 418.5 473.5 L 399.5 473.5 L 399.5 492.5 L 381.5 492.5 L 381.5 473.5 L 362.5 473.5 L 362.5 455.5 L 381.5 455.5 L 381.5 436.5 L 362.5 436.5 L 362.5 455.5 L 344.5 455.5 L 344.5 473.5 L 362.5 473.5 L 362.5 492.5 L 344.5 492.5 L 344.5 473.5 L 325.5 473.5 L 325.5 492.5 L 306.5 492.5 L 306.5 473.5 L 288.5 473.5 L 288.5 455.5 L 306.5 455.5 L 306.5 473.5 L 325.5 473.5 L 325.5 455.5 L 344.5 455.5 L 344.5 436.5 L 325.5 436.5 L 325.5 418.5 L 344.5 418.5 L 344.5 399.5 L 325.5 399.5 L 325.5 418.5 L 306.5 418.5 L 306.5 399.5 L 288.5 399.5 L 288.5 381.5 L 306.5 381.5 L 306.5 399.5 L 325.5 399.5 L 325.5 381.5 L 344.5 381.5 L 344.5 362.5 L 325.5 362.5 L 325.5 344.5 L 344.5 344.5 L 344.5 362.5 L 362.5 362.5 L 362.5 344.5 L 381.5 344.5 L 381.5 362.5 L 399.5 362.5 L 399.5 381.5 L 381.5 381.5 L 381.5 362.5 L 362.5 362.5 L 362.5 381.5 L 344.5 381.5 L 344.5 399.5 L 362.5 399.5 L 362.5 418.5 L 344.5 418.5 L 344.5 436.5 L 362.5 436.5 L 362.5 418.5 L 381.5 418.5 L 381.5 436.5 L 399.5 436.5 L 399.5 455.5 L 381.5 455.5 L 381.5 473.5 L 399.5 473.5 L 399.5 455.5 L 418.5 455.5 L 418.5 436.5 L 399.5 436.5 L 399.5 418.5 L 418.5 418.5 L 418.5 436.5 L 436.5 436.5 L 436.5 418.5 L 455.5 418.5 L 455.5 436.5 L 473.5 436.5 L 473.5 455.5 L 455.5 455.5 L 455.5 473.5 L 473.5 473.5 L 473.5 455.5 L 492.5 455.5 L 492.5 436.5 L 473.5 436.5 L 473.5 418.5 L 492.5 418.5 L 492.5 399.5 L 473.5 399.5 L 473.5 418.5 L 455.5 418.5 L 455.5 399.5 L 436.5 399.5 L 436.5 381.5 L 455.5 381.5 L 455.5 399.5 L 473.5 399.5 L 473.5 381.5 L 492.5 381.5 L 492.5 362.5 L 473.5 362.5 L 473.5 344.5 L 492.5 344.5 L 492.5 362.5 L 511.5 362.5 L 511.5 344.5 L 529.5 344.5 L 529.5 362.5 L 548.5 362.5 L 548.5 381.5 L 529.5 381.5 L 529.5 362.5 L 511.5 362.5 L 511.5 381.5 L 492.5 381.5 L 492.5 399.5 L 511.5 399.5 L 511.5 418.5 L 492.5 418.5 L 492.5 436.5 L 511.5 436.5 L 511.5 418.5 L 529.5 418.5 L 529.5 436.5 L 548.5 436.5 L 548.5 455.5 L 529.5 455.5 L 529.5 473.5 L 548.5 473.5 L 548.5 455.5 L 566.5 455.5 L 566.5 436.5 L 548.5 436.5 L 548.5 418.5 L 566.5 418.5 L 566.5 436.5 L 585.5 436.5 L 585.5 418.5 L 603.5 418.5 L 603.5 436.5 L 622.5 436.5 L 622.5 455.5 L 603.5 455.5 L 603.5 436.5 L 585.5 436.5 L 585.5 455.5 L 566.5 455.5 L 566.5 473.5 L 585.5 473.5 L 585.5 492.5 L 566.5 492.5 L 566.5 511.5 L 585.5 511.5 L 585.5 492.5 L 603.5 492.5 L 603.5 511.5 L 622.5 511.5 L 622.5 529.5 L 603.5 529.5 L 603.5 511.5 L 585.5 511.5 L 585.5 529.5 L 566.5 529.5 L 566.5 548.5 L 585.5 548.5 L 585.5 566.5 L 566.5 566.5 L 566.5 548.5 L 548.5 548.5 L 548.5 566.5 L 529.5 566.5 L 529.5 548.5 L 511.5 548.5 L 511.5 529.5 L 529.5 529.5 "/>
</g>
</svg>
