<?xml version="1.0" encoding="UTF-8"?>
<svg xmlns="http://www.w3.org/2000/svg" xmlns:xlink="http://www.w3.org/1999/xlink" width="700pt" height="700pt" viewBox="0 0 700 700" version="1.1">
<g id="surface1">
<path style="fill:none;stroke-width:0.5;stroke-linecap:butt;stroke-linejoin:miter;stroke:rgb(0%,0%,0%);stroke-opacity:1;stroke-miterlimit:10;" d="M 353.5 346.5 L 353.5 353.5 L 346.5 353.5 L 346.5 346.5 L 353.5 346.5 M 356.5 342.5 L 357.5 356.5 L 343.5 357.5 L 342.5 343.5 L 356.5 342.5 M 359.5 338.5 L 361.5 359.5 L 340.5 361.5 L 338.5 340.5 L 359.5 338.5 M 362.5 334.5 L 365.5 362.5 L 337.5 365.5 L 334.5 337.5 L 362.5 334.5 M 364.5 330.5 L 369.5 364.5 L 335.5 369.5 L 330.5 335.5 L 364.5 330.5 M 367.5 325.5 L 374.5 367.5 L 332.5 374.5 L 325.5 332.5 L 367.5 325.5 M 368.5 320.5 L 379.5 368.5 L 331.5 379.5 L 320.5 331.5 L 368.5 320.5 M 370.5 316.5 L 383.5 370.5 L 329.5 383.5 L 316.5 329.5 L 370.5 316.5 M 371.5 311.5 L 388.5 371.5 L 328.5 388.5 L 311.5 328.5 L 371.5 311.5 M 372.5 305.5 L 394.5 372.5 L 327.5 394.5 L 305.5 327.5 L 372.5 305.5 M 373.5 300.5 L 399.5 373.5 L 326.5 399.5 L 300.5 326.5 L 373.5 300.5 M 373.5 295.5 L 404.5 373.5 L 326.5 404.5 L 295.5 326.5 L 373.5 295.5 M 373.5 289.5 L 410.5 373.5 L 326.5 410.5 L 289.5 326.5 L 373.5 289.5 M 372.5 284.5 L 415.5 372.5 L 327.5 415.5 L 284.5 327.5 L 372.5 284.5 M 371.5 278.5 L 421.5 371.5 L 328.5 421.5 L 278.5 328.5 L 371.5 278.5 M 370.5 273.5 L 426.5 370.5 L 329.5 426.5 L 273.5 329.5 L 370.5 273.5 M 368.5 268.5 L 431.5 368.5 L 331.5 431.5 L 268.5 331.5 L 368.5 268.5 M 367.5 262.5 L 437.5 367.5 L 332.5 437.5 L 262.5 332.5 L 367.5 262.5 M 364.5 257.5 L 442.5 364.5 L 335.5 442.5 L 257.5 335.5 L 364.5 257.5 M 362.5 251.5 L 448.5 362.5 L 337.5 448.5 L 251.5 337.5 L 362.5 251.5 M 359.5 246.5 L 453.5 359.5 L 340.5 453.5 L 246.5 340.5 L 359.5 246.5 M 355.5 241.5 L 458.5 355.5 L 344.5 458.5 L 241.5 344.5 L 355.5 241.5 M 351.5 236.5 L 463.5 351.5 L 348.5 463.5 L 236.5 348.5 L 351.5 236.5 M 347.5 231.5 L 468.5 347.5 L 352.5 468.5 L 231.5 352.5 L 347.5 231.5 M 343.5 226.5 L 473.5 343.5 L 356.5 473.5 L 226.5 356.5 L 343.5 226.5 M 338.5 221.5 L 478.5 338.5 L 361.5 478.5 L 221.5 361.5 L 338.5 221.5 M 333.5 217.5 L 482.5 333.5 L 366.5 482.5 L 217.5 366.5 L 333.5 217.5 M 328.5 213.5 L 486.5 328.5 L 371.5 486.5 L 213.5 371.5 L 328.5 213.5 M 322.5 209.5 L 490.5 322.5 L 377.5 490.5 L 209.5 377.5 L 322.5 209.5 M 316.5 205.5 L 494.5 316.5 L 383.5 494.5 L 205.5 383.5 L 316.5 205.5 M 310.5 201.5 L 498.5 310.5 L 389.5 498.5 L 201.5 389.5 L 310.5 201.5 M 303.5 198.5 L 501.5 303.5 L 396.5 501.5 L 198.5 396.5 L 303.5 198.5 M 296.5 195.5 L 504.5 296.5 L 403.5 504.5 L 195.5 403.5 L 296.5 195.5 M 289.5 192.5 L 507.5 289.5 L 410.5 507.5 L 192.5 410.5 L 289.5 192.5 M 282.5 190.5 L 509.5 282.5 L 417.5 509.5 L 190.5 417.5 L 282.5 190.5 M 274.5 188.5 L 511.5 274.5 L 425.5 511.5 L 188.5 425.5 L 274.5 188.5 M 266.5 186.5 L 513.5 266.5 L 433.5 513.5 L 186.5 433.5 L 266.5 186.5 M 258.5 185.5 L 514.5 258.5 L 441.5 514.5 L 185.5 441.5 L 258.5 185.5 M 250.5 184.5 L 515.5 250.5 L 449.5 515.5 L 184.5 449.5 L 250.5 184.5 M 242.5 183.5 L 516.5 242.5 L 457.5 516.5 L 183.5 457.5 L 242.5 183.5 M 233.5 183.5 L 516.5 233.5 L 466.5 516.5 L 183.5 466.5 L 233.5 183.5 M 224.5 183.5 L 516.5 224.5 L 475.5 516.5 L 183.5 475.5 L 224.5 183.5 M 216.5 184.5 L 515.5 216.5 L 483.5 515.5 L 184.5 483.5 L 216.5 184.5 M 207.5 185.5 L 514.5 207.5 L 492.5 514.5 L 185.5 492.5 L 207.5 185.5 M 198.5 187.5 L 512.5 198.5 L 501.5 512.5 L 187.5 501.5 L 198.5 187.5 M 188.5 189.5 L 510.5 188.5 L 511.5 510.5 L 189.5 511.5 L 188.5 189.5 M 179.5 191.5 L 508.5 179.5 L 520.5 508.5 L 191.5 520.5 L 179.5 191.5 M 170.5 194.5 L 505.5 170.5 L 529.5 505.5 L 194.5 529.5 L 170.5 194.5 M 161.5 197.5 L 502.5 161.5 L 538.5 502.5 L 197.5 538.5 L 161.5 197.5 M 152.5 201.5 L 498.5 152.5 L 547.5 498.5 L 201.5 547.5 L 152.5 201.5 M 143.5 205.5 L 494.5 143.5 L 556.5 494.5 L 205.5 556.5 L 143.5 205.5 M 134.5 209.5 L 490.5 134.5 L 565.5 490.5 L 209.5 565.5 L 134.5 209.5 M 125.5 214.5 L 485.5 125.5 L 574.5 485.5 L 214.5 574.5 L 125.5 214.5 M 116.5 220.5 L 479.5 116.5 L 583.5 479.5 L 220.5 583.5 L 116.5 220.5 M 107.5 226.5 L 473.5 107.5 L 592.5 473.5 L 226.5 592.5 L 107.5 226.5 M 98.5 232.5 L 467.5 98.5 L 601.5 467.5 L 232.5 601.5 L 98.5 232.5 M 90.5 239.5 L 460.5 90.5 L 609.5 460.5 L 239.5 609.5 L 90.5 239.5 M 81.5 247.5 L 452.5 81.5 L 618.5 452.5 L 247.5 618.5 L 81.5 247.5 M 73.5 254.5 L 445.5 73.5 L 626.5 445.5 L 254.5 626.5 L 73.5 254.5 M 65.5 263.5 L 436.5 65.5 L 634.5 436.5 L 263.5 634.5 L 65.5 263.5 M 58.5 271.5 L 428.5 58.5 L 641.5 428.5 L 271.5 641.5 L 58.5 271.5 M 50.5 280.5 L 419.5 50.5 L 649.5 419.5 L 280.5 649.5 L 50.5 280.5 M 43.5 290.5 L 409.5 43.5 L 656.5 409.5 L 290.5 656.5 L 43.5 290.5 M 37.5 300.5 L 399.5 37.5 L 662.5 399.5 L 300.5 662.5 L 37.5 300.5 M 30.5 310.5 L 389.5 30.5 L 669.5 389.5 L 310.5 669.5 L 30.5 310.5 M 24.5 321.5 L 378.5 24.5 L 675.5 378.5 L 321.5 675.5 L 24.5 321.5 M 18.5 332.5 L 367.5 18.5 L 681.5 367.5 L 332.5 681.5 L 18.5 332.5 M 13.5 344.5 L 355.5 13.5 L 686.5 355.5 L 344.5 686.5 L 13.5 344.5 M 8.5 355.5 L 344.5 8.5 L 691.5 344.5 L 355.5 691.5 L 8.5 355.5 M 3.5 368.5 L 331.5 3.5 L 696.5 331.5 L 368.5 696.5 L 3.5 368.5 "/>
</g>
</svg>
