<?xml version="1.0" encoding="UTF-8"?>
<svg xmlns="http://www.w3.org/2000/svg" xmlns:xlink="http://www.w3.org/1999/xlink" width="700pt" height="700pt" viewBox="0 0 700 700" version="1.1">
<g id="surface1">
<path style="fill:none;stroke-width:0.5;stroke-linecap:butt;stroke-linejoin:miter;stroke:rgb(0%,0%,0%);stroke-opacity:1;stroke-miterlimit:10;" d="M 0.5 350.5 L 2.5 350.5 L 4.5 347.5 L 5.5 350.5 L 8.5 350.5 L 10.5 347.5 L 8.5 345.5 L 11.5 345.5 L 12.5 342.5 L 14.5 345.5 L 17.5 345.5 L 15.5 347.5 L 17.5 350.5 L 20.5 350.5 L 21.5 347.5 L 23.5 350.5 L 25.5 350.5 L 27.5 347.5 L 25.5 345.5 L 28.5 345.5 L 30.5 342.5 L 28.5 340.5 L 25.5 340.5 L 27.5 337.5 L 25.5 335.5 L 28.5 335.5 L 30.5 332.5 L 31.5 335.5 L 34.5 335.5 L 36.5 332.5 L 34.5 330.5 L 37.5 330.5 L 38.5 327.5 L 40.5 330.5 L 43.5 330.5 L 41.5 332.5 L 43.5 335.5 L 46.5 335.5 L 47.5 332.5 L 48.5 335.5 L 51.5 335.5 L 50.5 337.5 L 51.5 340.5 L 48.5 340.5 L 47.5 342.5 L 48.5 345.5 L 51.5 345.5 L 50.5 347.5 L 51.5 350.5 L 54.5 350.5 L 56.5 347.5 L 57.5 350.5 L 60.5 350.5 L 61.5 347.5 L 60.5 345.5 L 63.5 345.5 L 64.5 342.5 L 66.5 345.5 L 69.5 345.5 L 67.5 347.5 L 69.5 350.5 L 72.5 350.5 L 73.5 347.5 L 74.5 350.5 L 77.5 350.5 L 79.5 347.5 L 77.5 345.5 L 80.5 345.5 L 82.5 342.5 L 80.5 340.5 L 77.5 340.5 L 79.5 337.5 L 77.5 335.5 L 80.5 335.5 L 82.5 332.5 L 83.5 335.5 L 86.5 335.5 L 87.5 332.5 L 86.5 330.5 L 89.5 330.5 L 90.5 327.5 L 89.5 325.5 L 86.5 325.5 L 87.5 322.5 L 86.5 320.5 L 83.5 320.5 L 82.5 322.5 L 80.5 320.5 L 77.5 320.5 L 79.5 317.5 L 77.5 315.5 L 80.5 315.5 L 82.5 312.5 L 80.5 310.5 L 77.5 310.5 L 79.5 307.5 L 77.5 305.5 L 80.5 305.5 L 82.5 302.5 L 83.5 305.5 L 86.5 305.5 L 87.5 302.5 L 86.5 300.5 L 89.5 300.5 L 90.5 297.5 L 92.5 300.5 L 95.5 300.5 L 93.5 302.5 L 95.5 305.5 L 97.5 305.5 L 99.5 302.5 L 100.5 305.5 L 103.5 305.5 L 105.5 302.5 L 103.5 300.5 L 106.5 300.5 L 108.5 297.5 L 106.5 295.5 L 103.5 295.5 L 105.5 292.5 L 103.5 290.5 L 106.5 290.5 L 108.5 287.5 L 109.5 290.5 L 112.5 290.5 L 113.5 287.5 L 112.5 285.5 L 115.5 285.5 L 116.5 282.5 L 118.5 285.5 L 120.5 285.5 L 119.5 287.5 L 120.5 290.5 L 123.5 290.5 L 125.5 287.5 L 126.5 290.5 L 129.5 290.5 L 128.5 292.5 L 129.5 295.5 L 126.5 295.5 L 125.5 297.5 L 126.5 300.5 L 129.5 300.5 L 128.5 302.5 L 129.5 305.5 L 132.5 305.5 L 133.5 302.5 L 135.5 305.5 L 138.5 305.5 L 139.5 302.5 L 138.5 300.5 L 141.5 300.5 L 142.5 297.5 L 144.5 300.5 L 146.5 300.5 L 145.5 302.5 L 146.5 305.5 L 149.5 305.5 L 151.5 302.5 L 152.5 305.5 L 155.5 305.5 L 154.5 307.5 L 155.5 310.5 L 152.5 310.5 L 151.5 312.5 L 152.5 315.5 L 155.5 315.5 L 154.5 317.5 L 155.5 320.5 L 152.5 320.5 L 151.5 322.5 L 149.5 320.5 L 146.5 320.5 L 145.5 322.5 L 146.5 325.5 L 144.5 325.5 L 142.5 327.5 L 144.5 330.5 L 146.5 330.5 L 145.5 332.5 L 146.5 335.5 L 149.5 335.5 L 151.5 332.5 L 152.5 335.5 L 155.5 335.5 L 154.5 337.5 L 155.5 340.5 L 152.5 340.5 L 151.5 342.5 L 152.5 345.5 L 155.5 345.5 L 154.5 347.5 L 155.5 350.5 L 158.5 350.5 L 159.5 347.5 L 161.5 350.5 L 164.5 350.5 L 165.5 347.5 L 164.5 345.5 L 167.5 345.5 L 168.5 342.5 L 169.5 345.5 L 172.5 345.5 L 171.5 347.5 L 172.5 350.5 L 175.5 350.5 L 177.5 347.5 L 178.5 350.5 L 181.5 350.5 L 182.5 347.5 L 181.5 345.5 L 184.5 345.5 L 185.5 342.5 L 184.5 340.5 L 181.5 340.5 L 182.5 337.5 L 181.5 335.5 L 184.5 335.5 L 185.5 332.5 L 187.5 335.5 L 190.5 335.5 L 191.5 332.5 L 190.5 330.5 L 193.5 330.5 L 194.5 327.5 L 195.5 330.5 L 198.5 330.5 L 197.5 332.5 L 198.5 335.5 L 201.5 335.5 L 203.5 332.5 L 204.5 335.5 L 207.5 335.5 L 205.5 337.5 L 207.5 340.5 L 204.5 340.5 L 203.5 342.5 L 204.5 345.5 L 207.5 345.5 L 205.5 347.5 L 207.5 350.5 L 210.5 350.5 L 211.5 347.5 L 213.5 350.5 L 216.5 350.5 L 217.5 347.5 L 216.5 345.5 L 218.5 345.5 L 220.5 342.5 L 221.5 345.5 L 224.5 345.5 L 223.5 347.5 L 224.5 350.5 L 227.5 350.5 L 229.5 347.5 L 230.5 350.5 L 233.5 350.5 L 234.5 347.5 L 233.5 345.5 L 236.5 345.5 L 237.5 342.5 L 236.5 340.5 L 233.5 340.5 L 234.5 337.5 L 233.5 335.5 L 236.5 335.5 L 237.5 332.5 L 239.5 335.5 L 241.5 335.5 L 243.5 332.5 L 241.5 330.5 L 244.5 330.5 L 246.5 327.5 L 244.5 325.5 L 241.5 325.5 L 243.5 322.5 L 241.5 320.5 L 239.5 320.5 L 237.5 322.5 L 236.5 320.5 L 233.5 320.5 L 234.5 317.5 L 233.5 315.5 L 236.5 315.5 L 237.5 312.5 L 236.5 310.5 L 233.5 310.5 L 234.5 307.5 L 233.5 305.5 L 236.5 305.5 L 237.5 302.5 L 239.5 305.5 L 241.5 305.5 L 243.5 302.5 L 241.5 300.5 L 244.5 300.5 L 246.5 297.5 L 247.5 300.5 L 250.5 300.5 L 249.5 302.5 L 250.5 305.5 L 253.5 305.5 L 254.5 302.5 L 256.5 305.5 L 259.5 305.5 L 260.5 302.5 L 259.5 300.5 L 262.5 300.5 L 263.5 297.5 L 262.5 295.5 L 259.5 295.5 L 260.5 292.5 L 259.5 290.5 L 262.5 290.5 L 263.5 287.5 L 265.5 290.5 L 267.5 290.5 L 269.5 287.5 L 267.5 285.5 L 270.5 285.5 L 272.5 282.5 L 270.5 280.5 L 267.5 280.5 L 269.5 277.5 L 267.5 275.5 L 265.5 275.5 L 263.5 277.5 L 262.5 275.5 L 259.5 275.5 L 260.5 272.5 L 259.5 270.5 L 262.5 270.5 L 263.5 267.5 L 262.5 265.5 L 259.5 265.5 L 260.5 262.5 L 259.5 260.5 L 256.5 260.5 L 254.5 262.5 L 253.5 260.5 L 250.5 260.5 L 249.5 262.5 L 250.5 265.5 L 247.5 265.5 L 246.5 267.5 L 244.5 265.5 L 241.5 265.5 L 243.5 262.5 L 241.5 260.5 L 239.5 260.5 L 237.5 262.5 L 236.5 260.5 L 233.5 260.5 L 234.5 257.5 L 233.5 255.5 L 236.5 255.5 L 237.5 252.5 L 236.5 250.5 L 233.5 250.5 L 234.5 247.5 L 233.5 245.5 L 236.5 245.5 L 237.5 242.5 L 239.5 245.5 L 241.5 245.5 L 243.5 242.5 L 241.5 240.5 L 244.5 240.5 L 246.5 237.5 L 244.5 235.5 L 241.5 235.5 L 243.5 232.5 L 241.5 230.5 L 239.5 230.5 L 237.5 232.5 L 236.5 230.5 L 233.5 230.5 L 234.5 227.5 L 233.5 225.5 L 236.5 225.5 L 237.5 222.5 L 236.5 220.5 L 233.5 220.5 L 234.5 217.5 L 233.5 215.5 L 236.5 215.5 L 237.5 212.5 L 239.5 215.5 L 241.5 215.5 L 243.5 212.5 L 241.5 210.5 L 244.5 210.5 L 246.5 207.5 L 247.5 210.5 L 250.5 210.5 L 249.5 212.5 L 250.5 215.5 L 253.5 215.5 L 254.5 212.5 L 256.5 215.5 L 259.5 215.5 L 260.5 212.5 L 259.5 210.5 L 262.5 210.5 L 263.5 207.5 L 262.5 205.5 L 259.5 205.5 L 260.5 202.5 L 259.5 200.5 L 262.5 200.5 L 263.5 197.5 L 265.5 200.5 L 267.5 200.5 L 269.5 197.5 L 267.5 195.5 L 270.5 195.5 L 272.5 192.5 L 273.5 195.5 L 276.5 195.5 L 275.5 197.5 L 276.5 200.5 L 279.5 200.5 L 280.5 197.5 L 282.5 200.5 L 285.5 200.5 L 283.5 202.5 L 285.5 205.5 L 282.5 205.5 L 280.5 207.5 L 282.5 210.5 L 285.5 210.5 L 283.5 212.5 L 285.5 215.5 L 288.5 215.5 L 289.5 212.5 L 290.5 215.5 L 293.5 215.5 L 295.5 212.5 L 293.5 210.5 L 296.5 210.5 L 298.5 207.5 L 299.5 210.5 L 302.5 210.5 L 301.5 212.5 L 302.5 215.5 L 305.5 215.5 L 306.5 212.5 L 308.5 215.5 L 311.5 215.5 L 312.5 212.5 L 311.5 210.5 L 313.5 210.5 L 315.5 207.5 L 313.5 205.5 L 311.5 205.5 L 312.5 202.5 L 311.5 200.5 L 313.5 200.5 L 315.5 197.5 L 316.5 200.5 L 319.5 200.5 L 321.5 197.5 L 319.5 195.5 L 322.5 195.5 L 324.5 192.5 L 322.5 190.5 L 319.5 190.5 L 321.5 187.5 L 319.5 185.5 L 316.5 185.5 L 315.5 187.5 L 313.5 185.5 L 311.5 185.5 L 312.5 182.5 L 311.5 180.5 L 313.5 180.5 L 315.5 177.5 L 313.5 175.5 L 311.5 175.5 L 312.5 172.5 L 311.5 170.5 L 313.5 170.5 L 315.5 167.5 L 316.5 170.5 L 319.5 170.5 L 321.5 167.5 L 319.5 165.5 L 322.5 165.5 L 324.5 162.5 L 325.5 165.5 L 328.5 165.5 L 326.5 167.5 L 328.5 170.5 L 331.5 170.5 L 332.5 167.5 L 334.5 170.5 L 337.5 170.5 L 338.5 167.5 L 337.5 165.5 L 339.5 165.5 L 341.5 162.5 L 339.5 160.5 L 337.5 160.5 L 338.5 157.5 L 337.5 155.5 L 339.5 155.5 L 341.5 152.5 L 342.5 155.5 L 345.5 155.5 L 347.5 152.5 L 345.5 150.5 L 348.5 150.5 L 349.5 147.5 L 351.5 150.5 L 354.5 150.5 L 352.5 152.5 L 354.5 155.5 L 357.5 155.5 L 358.5 152.5 L 360.5 155.5 L 362.5 155.5 L 361.5 157.5 L 362.5 160.5 L 360.5 160.5 L 358.5 162.5 L 360.5 165.5 L 362.5 165.5 L 361.5 167.5 L 362.5 170.5 L 365.5 170.5 L 367.5 167.5 L 368.5 170.5 L 371.5 170.5 L 373.5 167.5 L 371.5 165.5 L 374.5 165.5 L 375.5 162.5 L 377.5 165.5 L 380.5 165.5 L 378.5 167.5 L 380.5 170.5 L 383.5 170.5 L 384.5 167.5 L 386.5 170.5 L 388.5 170.5 L 387.5 172.5 L 388.5 175.5 L 386.5 175.5 L 384.5 177.5 L 386.5 180.5 L 388.5 180.5 L 387.5 182.5 L 388.5 185.5 L 386.5 185.5 L 384.5 187.5 L 383.5 185.5 L 380.5 185.5 L 378.5 187.5 L 380.5 190.5 L 377.5 190.5 L 375.5 192.5 L 377.5 195.5 L 380.5 195.5 L 378.5 197.5 L 380.5 200.5 L 383.5 200.5 L 384.5 197.5 L 386.5 200.5 L 388.5 200.5 L 387.5 202.5 L 388.5 205.5 L 386.5 205.5 L 384.5 207.5 L 386.5 210.5 L 388.5 210.5 L 387.5 212.5 L 388.5 215.5 L 391.5 215.5 L 393.5 212.5 L 394.5 215.5 L 397.5 215.5 L 398.5 212.5 L 397.5 210.5 L 400.5 210.5 L 401.5 207.5 L 403.5 210.5 L 406.5 210.5 L 404.5 212.5 L 406.5 215.5 L 409.5 215.5 L 410.5 212.5 L 411.5 215.5 L 414.5 215.5 L 416.5 212.5 L 414.5 210.5 L 417.5 210.5 L 419.5 207.5 L 417.5 205.5 L 414.5 205.5 L 416.5 202.5 L 414.5 200.5 L 417.5 200.5 L 419.5 197.5 L 420.5 200.5 L 423.5 200.5 L 424.5 197.5 L 423.5 195.5 L 426.5 195.5 L 427.5 192.5 L 429.5 195.5 L 432.5 195.5 L 430.5 197.5 L 432.5 200.5 L 434.5 200.5 L 436.5 197.5 L 437.5 200.5 L 440.5 200.5 L 439.5 202.5 L 440.5 205.5 L 437.5 205.5 L 436.5 207.5 L 437.5 210.5 L 440.5 210.5 L 439.5 212.5 L 440.5 215.5 L 443.5 215.5 L 445.5 212.5 L 446.5 215.5 L 449.5 215.5 L 450.5 212.5 L 449.5 210.5 L 452.5 210.5 L 453.5 207.5 L 455.5 210.5 L 458.5 210.5 L 456.5 212.5 L 458.5 215.5 L 460.5 215.5 L 462.5 212.5 L 463.5 215.5 L 466.5 215.5 L 465.5 217.5 L 466.5 220.5 L 463.5 220.5 L 462.5 222.5 L 463.5 225.5 L 466.5 225.5 L 465.5 227.5 L 466.5 230.5 L 463.5 230.5 L 462.5 232.5 L 460.5 230.5 L 458.5 230.5 L 456.5 232.5 L 458.5 235.5 L 455.5 235.5 L 453.5 237.5 L 455.5 240.5 L 458.5 240.5 L 456.5 242.5 L 458.5 245.5 L 460.5 245.5 L 462.5 242.5 L 463.5 245.5 L 466.5 245.5 L 465.5 247.5 L 466.5 250.5 L 463.5 250.5 L 462.5 252.5 L 463.5 255.5 L 466.5 255.5 L 465.5 257.5 L 466.5 260.5 L 463.5 260.5 L 462.5 262.5 L 460.5 260.5 L 458.5 260.5 L 456.5 262.5 L 458.5 265.5 L 455.5 265.5 L 453.5 267.5 L 452.5 265.5 L 449.5 265.5 L 450.5 262.5 L 449.5 260.5 L 446.5 260.5 L 445.5 262.5 L 443.5 260.5 L 440.5 260.5 L 439.5 262.5 L 440.5 265.5 L 437.5 265.5 L 436.5 267.5 L 437.5 270.5 L 440.5 270.5 L 439.5 272.5 L 440.5 275.5 L 437.5 275.5 L 436.5 277.5 L 434.5 275.5 L 432.5 275.5 L 430.5 277.5 L 432.5 280.5 L 429.5 280.5 L 427.5 282.5 L 429.5 285.5 L 432.5 285.5 L 430.5 287.5 L 432.5 290.5 L 434.5 290.5 L 436.5 287.5 L 437.5 290.5 L 440.5 290.5 L 439.5 292.5 L 440.5 295.5 L 437.5 295.5 L 436.5 297.5 L 437.5 300.5 L 440.5 300.5 L 439.5 302.5 L 440.5 305.5 L 443.5 305.5 L 445.5 302.5 L 446.5 305.5 L 449.5 305.5 L 450.5 302.5 L 449.5 300.5 L 452.5 300.5 L 453.5 297.5 L 455.5 300.5 L 458.5 300.5 L 456.5 302.5 L 458.5 305.5 L 460.5 305.5 L 462.5 302.5 L 463.5 305.5 L 466.5 305.5 L 465.5 307.5 L 466.5 310.5 L 463.5 310.5 L 462.5 312.5 L 463.5 315.5 L 466.5 315.5 L 465.5 317.5 L 466.5 320.5 L 463.5 320.5 L 462.5 322.5 L 460.5 320.5 L 458.5 320.5 L 456.5 322.5 L 458.5 325.5 L 455.5 325.5 L 453.5 327.5 L 455.5 330.5 L 458.5 330.5 L 456.5 332.5 L 458.5 335.5 L 460.5 335.5 L 462.5 332.5 L 463.5 335.5 L 466.5 335.5 L 465.5 337.5 L 466.5 340.5 L 463.5 340.5 L 462.5 342.5 L 463.5 345.5 L 466.5 345.5 L 465.5 347.5 L 466.5 350.5 L 469.5 350.5 L 470.5 347.5 L 472.5 350.5 L 475.5 350.5 L 476.5 347.5 L 475.5 345.5 L 478.5 345.5 L 479.5 342.5 L 481.5 345.5 L 483.5 345.5 L 482.5 347.5 L 483.5 350.5 L 486.5 350.5 L 488.5 347.5 L 489.5 350.5 L 492.5 350.5 L 494.5 347.5 L 492.5 345.5 L 495.5 345.5 L 496.5 342.5 L 495.5 340.5 L 492.5 340.5 L 494.5 337.5 L 492.5 335.5 L 495.5 335.5 L 496.5 332.5 L 498.5 335.5 L 501.5 335.5 L 502.5 332.5 L 501.5 330.5 L 504.5 330.5 L 505.5 327.5 L 506.5 330.5 L 509.5 330.5 L 508.5 332.5 L 509.5 335.5 L 512.5 335.5 L 514.5 332.5 L 515.5 335.5 L 518.5 335.5 L 517.5 337.5 L 518.5 340.5 L 515.5 340.5 L 514.5 342.5 L 515.5 345.5 L 518.5 345.5 L 517.5 347.5 L 518.5 350.5 L 521.5 350.5 L 522.5 347.5 L 524.5 350.5 L 527.5 350.5 L 528.5 347.5 L 527.5 345.5 L 530.5 345.5 L 531.5 342.5 L 532.5 345.5 L 535.5 345.5 L 534.5 347.5 L 535.5 350.5 L 538.5 350.5 L 540.5 347.5 L 541.5 350.5 L 544.5 350.5 L 545.5 347.5 L 544.5 345.5 L 547.5 345.5 L 548.5 342.5 L 547.5 340.5 L 544.5 340.5 L 545.5 337.5 L 544.5 335.5 L 547.5 335.5 L 548.5 332.5 L 550.5 335.5 L 553.5 335.5 L 554.5 332.5 L 553.5 330.5 L 555.5 330.5 L 557.5 327.5 L 555.5 325.5 L 553.5 325.5 L 554.5 322.5 L 553.5 320.5 L 550.5 320.5 L 548.5 322.5 L 547.5 320.5 L 544.5 320.5 L 545.5 317.5 L 544.5 315.5 L 547.5 315.5 L 548.5 312.5 L 547.5 310.5 L 544.5 310.5 L 545.5 307.5 L 544.5 305.5 L 547.5 305.5 L 548.5 302.5 L 550.5 305.5 L 553.5 305.5 L 554.5 302.5 L 553.5 300.5 L 555.5 300.5 L 557.5 297.5 L 558.5 300.5 L 561.5 300.5 L 560.5 302.5 L 561.5 305.5 L 564.5 305.5 L 566.5 302.5 L 567.5 305.5 L 570.5 305.5 L 571.5 302.5 L 570.5 300.5 L 573.5 300.5 L 574.5 297.5 L 573.5 295.5 L 570.5 295.5 L 571.5 292.5 L 570.5 290.5 L 573.5 290.5 L 574.5 287.5 L 576.5 290.5 L 579.5 290.5 L 580.5 287.5 L 579.5 285.5 L 581.5 285.5 L 583.5 282.5 L 584.5 285.5 L 587.5 285.5 L 586.5 287.5 L 587.5 290.5 L 590.5 290.5 L 591.5 287.5 L 593.5 290.5 L 596.5 290.5 L 594.5 292.5 L 596.5 295.5 L 593.5 295.5 L 591.5 297.5 L 593.5 300.5 L 596.5 300.5 L 594.5 302.5 L 596.5 305.5 L 599.5 305.5 L 600.5 302.5 L 602.5 305.5 L 604.5 305.5 L 606.5 302.5 L 604.5 300.5 L 607.5 300.5 L 609.5 297.5 L 610.5 300.5 L 613.5 300.5 L 612.5 302.5 L 613.5 305.5 L 616.5 305.5 L 617.5 302.5 L 619.5 305.5 L 622.5 305.5 L 620.5 307.5 L 622.5 310.5 L 619.5 310.5 L 617.5 312.5 L 619.5 315.5 L 622.5 315.5 L 620.5 317.5 L 622.5 320.5 L 619.5 320.5 L 617.5 322.5 L 616.5 320.5 L 613.5 320.5 L 612.5 322.5 L 613.5 325.5 L 610.5 325.5 L 609.5 327.5 L 610.5 330.5 L 613.5 330.5 L 612.5 332.5 L 613.5 335.5 L 616.5 335.5 L 617.5 332.5 L 619.5 335.5 L 622.5 335.5 L 620.5 337.5 L 622.5 340.5 L 619.5 340.5 L 617.5 342.5 L 619.5 345.5 L 622.5 345.5 L 620.5 347.5 L 622.5 350.5 L 625.5 350.5 L 626.5 347.5 L 627.5 350.5 L 630.5 350.5 L 632.5 347.5 L 630.5 345.5 L 633.5 345.5 L 635.5 342.5 L 636.5 345.5 L 639.5 345.5 L 638.5 347.5 L 639.5 350.5 L 642.5 350.5 L 643.5 347.5 L 645.5 350.5 L 648.5 350.5 L 649.5 347.5 L 648.5 345.5 L 651.5 345.5 L 652.5 342.5 L 651.5 340.5 L 648.5 340.5 L 649.5 337.5 L 648.5 335.5 L 651.5 335.5 L 652.5 332.5 L 653.5 335.5 L 656.5 335.5 L 658.5 332.5 L 656.5 330.5 L 659.5 330.5 L 661.5 327.5 L 662.5 330.5 L 665.5 330.5 L 663.5 332.5 L 665.5 335.5 L 668.5 335.5 L 669.5 332.5 L 671.5 335.5 L 674.5 335.5 L 672.5 337.5 L 674.5 340.5 L 671.5 340.5 L 669.5 342.5 L 671.5 345.5 L 674.5 345.5 L 672.5 347.5 L 674.5 350.5 L 676.5 350.5 L 678.5 347.5 L 679.5 350.5 L 682.5 350.5 L 684.5 347.5 L 682.5 345.5 L 685.5 345.5 L 687.5 342.5 L 688.5 345.5 L 691.5 345.5 L 689.5 347.5 L 691.5 350.5 L 694.5 350.5 L 695.5 347.5 L 697.5 350.5 L 700.5 350.5 "/>
</g>
</svg>
